<?xml version="1.0" standalone="no"?>
<!DOCTYPE svg PUBLIC "-//W3C//DTD SVG 1.1//EN" "http://www.w3.org/Graphics/SVG/1.1/DTD/svg11.dtd" >
<svg xmlns="http://www.w3.org/2000/svg">
<metadata>Generated by IcoMoon</metadata>
<defs>
<font id="panicons" horiz-adv-x="512">
<font-face units-per-em="512" ascent="480" descent="-32" />
<missing-glyph horiz-adv-x="512" />
<glyph unicode="&#x20;" d="" horiz-adv-x="256" />
<glyph unicode="&#xe600;" d="M424.567 305.067h-104.765v71.763c0 12.953-10.483 24.237-23.433 24.237h-208.425c-12.954 0-23.942-11.28-23.942-24.237v-336.327c0-12.957 10.989-23.437 23.942-23.437h336.621c12.954 0 23.433 10.48 23.433 23.437v240.384c0.003 12.954-10.477 24.179-23.43 24.179zM288 303.265v-254.199h-192v320h192v-65.801zM416 49.067h-96l0.256 224.032h95.744v-224.032zM176 305.067c0-8.8-7.2-16-16-16h-16c-8.8 0-16 7.2-16 16v16c0 8.8 7.2 16 16 16h16c8.8 0 16-7.2 16-16v-16zM256 305.067c0-8.8-7.2-16-16-16h-16c-8.8 0-16 7.2-16 16v16c0 8.8 7.2 16 16 16h16c8.8 0 16-7.2 16-16v-16zM176 209.067c0-8.8-7.2-16-16-16h-16c-8.8 0-16 7.2-16 16v16c0 8.8 7.2 16 16 16h16c8.8 0 16-7.2 16-16v-16zM256 209.070c0-8.8-7.2-16-16-16h-16c-8.8 0-16 7.2-16 16v15.997c0 8.8 7.2 16 16 16h16c8.8 0 16-7.2 16-16v-15.997zM176 113.067c0-8.8-7.2-16-16-16h-16c-8.8 0-16 7.2-16 16v16c0 8.8 7.2 16 16 16h16c8.8 0 16-7.2 16-16v-16zM256 113.067c0-8.8-7.2-16-16-16h-16c-8.8 0-16 7.2-16 16v16c0 8.8 7.2 16 16 16h16c8.8 0 16-7.2 16-16v-16z" />
<glyph unicode="&#xe601;" d="M452.601 405.333h-393.203c-15.142 0-27.398-12.266-27.398-27.427v-329.139c0-15.161 12.256-27.43 27.398-27.43h393.2c15.146 0 27.399 12.269 27.399 27.43v329.139c0.003 15.161-12.25 27.427-27.395 27.427zM448 53.333h-384v320h384v-320zM256 129.445c0 32.925-22.275 66.118-53.782 77.357l-6.483 2.313 5.949 3.466c16.157 9.415 25.808 26.016 25.808 44.4 0 28.48-23.149 52.288-51.6 52.288-28.454 0-51.603-23.805-51.603-52.288 0-18.384 9.648-34.986 25.808-44.4l5.949-3.466-6.483-2.313c-31.511-11.238-53.495-44.432-53.495-77.357v0c0-5.798 5.529-12.045 11.322-12.045h137.001c5.789 0 11.609 6.247 11.609 12.045v0zM416 277.333c0-8.8-7.2-16-16-16h-96c-8.8 0-16 7.2-16 16v16c0 8.8 7.2 16 16 16h96c8.8 0 16-7.2 16-16v-16zM416 197.333c0-8.8-7.2-16-16-16h-96c-8.8 0-16 7.2-16 16v16c0 8.8 7.2 16 16 16h96c8.8 0 16-7.2 16-16v-16z" />
<glyph unicode="&#xe602;" d="M199.43 202.021l-101.802-101.805v-45.251h45.255l101.802 101.798zM424.531 361.538l-20.045 20.045c-3.331 3.328-7.763 5.161-12.467 5.161-4.701 0-9.408-1.549-12.739-4.88l-32.793-32.793 45.257-45.255 32.793 32.793c3.328 3.331 5.161 7.754 5.159 12.461 0 4.711-1.83 9.136-5.165 12.467zM363.891 62.565c-23.405 0-42.445 19.037-42.448 42.432 0.003 2.375 0.247 4.787 0.717 7.181 0.032 0.839 0.131 1.92 0.589 3.088 0.438 1.693 0.938 3.475 1.687 5.312 0.471 1.517 1.181 2.669 1.942 3.757 3.712 7.882 10.269 14.445 18.147 18.169 1.065 0.759 2.272 1.478 3.786 1.936 1.949 0.803 3.805 1.331 5.424 1.738 1.12 0.406 2.137 0.502 2.957 0.525 2.368 0.49 4.781 0.736 7.193 0.736 23.405 0 42.445-19.037 42.445-42.445-0.003-9.715 7.907-17.619 17.625-17.619s17.625 7.907 17.625 17.619c0 42.841-34.854 77.693-77.693 77.693-3.987 0-7.28-0.272-10.349-0.851l-0.205-0.041-0.211-0.026c-3.274-0.397-6.445-1.232-9.783-2.122-0.998-0.403-3.939-1.571-6.003-2.397l-36.083 36.083 79.197 79.197-45.257 45.255-79.194-79.197-36.089 36.090c0.826 2.096 1.994 5.008 2.387 5.993 0.893 3.277 1.719 6.502 2.144 9.827l0.025 0.189 0.038 0.192c0.583 3.063 0.851 6.349 0.851 10.345 0 42.839-34.851 77.69-77.686 77.69-9.719 0-17.625-7.904-17.625-17.623 0-9.721 7.907-17.632 17.623-17.632 23.401 0 42.439-19.034 42.439-42.432 0-23.401-19.040-42.442-42.439-42.442-23.398 0-42.439 19.037-42.439 42.439 0 9.721-7.907 17.625-17.626 17.629-9.719 0-17.626-7.91-17.626-17.632 0-42.832 34.848-77.68 77.686-77.68 3.997 0 7.29 0.272 10.355 0.848l0.205 0.042 0.205 0.025c3.283 0.4 6.445 1.235 9.792 2.128 1.107 0.441 4.589 1.827 6.627 2.643l117.034-117.034c-0.493-1.213-1.043-2.329-1.536-3.309-0.499-0.989-1.139-2.72-1.411-3.51-0.483-2.208-1.462-6.877-1.824-9.654l-0.026-0.189-0.032-0.183c-0.576-3.037-0.858-6.419-0.851-10.346 0-42.841 34.841-77.69 77.677-77.69 9.728 0 17.635 7.907 17.635 17.625s-7.904 17.625-17.623 17.625z" />
<glyph unicode="&#xe603;" d="M414.74 77.221l-34.908 34.908c22.592 27.594 36.168 62.841 36.168 101.204 0 88.224-71.776 160-160 160s-160-71.776-160-160 71.776-160 160-160c38.363 0 73.611 13.576 101.204 36.169l34.908-34.908c6.25-6.249 16.377-6.249 22.627 0 6.25 6.25 6.25 16.377 0 22.627zM128 213.333c0 70.695 57.309 128 128 128s128-57.309 128-128-57.309-128-128-128-128 57.305-128 128z" />
<glyph unicode="&#xe604;" d="M368 213.333h64c8.8 0 16 7.2 16 16v64c0 8.8-7.2 16-16 16h-64c-8.8 0-16-7.2-16-16v-64c0-8.8 7.2-16 16-16zM174.41 245.333h99.177c7.969 0 14.413 6.439 14.413 14.4v3.2c0 7.959-6.445 14.4-14.413 14.4h-99.178c-7.965 0-14.41-6.439-14.41-14.4v-3.2c0-7.962 6.445-14.4 14.41-14.4zM480 373.333h-352c-16.457 0-32-13.162-32-29.063v-58.938h-72c-4.419 0-8-3.581-8-8s3.581-8 8-8h72v-48h-88c-4.419 0-8-3.581-8-8s3.581-8 8-8h88v-48h-72c-4.419 0-8-3.581-8-8s3.581-8 8-8h72v-26.906c0-15.897 14.493-29.094 30.947-29.094h355.907c16.457 0 29.142 13.197 29.142 29.094v229.843c0.003 15.901-15.539 29.063-31.997 29.063zM480 117.333h-352v224h352v-224zM174.41 181.333h99.184c7.962 0 14.406 6.438 14.406 14.397v3.207c0 7.959-6.445 14.397-14.406 14.397h-99.185c-7.965 0-14.41-6.438-14.41-14.397v-3.207c0-7.959 6.445-14.397 14.41-14.397z" />
<glyph unicode="&#xe605;" d="M214.4 206.933h16v-16h-16v16zM214.4 258.133h16v-16h-16v16zM214.4 232.533h16v-16h-16v16zM284.8 290.133h-96v-144h144v112h-48v32zM316.8 242.133v-80h-112v112h64v-32h48zM284.8 232.533h16v-16h-16v16zM284.8 206.933h16v-16h-16v16zM243.2 258.133h16v-16h-16v16zM243.2 206.933h16v-16h-16v16zM243.2 232.533h16v-16h-16v16zM414.736 77.221l-34.906 34.907c22.594 27.594 36.17 62.842 36.17 101.204 0 88.224-71.776 160-160 160s-160-71.776-160-160 71.776-160 160-160c38.363 0 73.611 13.576 101.204 36.17l34.907-34.906c6.25-6.25 16.375-6.25 22.624 0s6.25 16.375 0 22.624zM128 213.333c0 70.695 57.309 128 128 128s128-57.309 128-128-57.309-128-128-128-128 57.305-128 128z" />
<glyph unicode="&#xe606;" d="M149.43 277.333h-74.861c-5.814 0-10.569-3.155-10.569-8.97v-26.864c0-5.811 4.755-12.166 10.569-12.166h74.864c5.811 0 10.566 6.355 10.566 12.169v26.865c0 5.81-4.755 8.966-10.57 8.966zM144 245.333h-64v16h64v-16zM149.43 341.333h-74.861c-5.814 0-10.569-4.755-10.569-10.57v-26.864c0-5.811 4.755-10.566 10.569-10.566h74.864c5.811 0 10.566 4.755 10.566 10.569v26.864c0 5.811-4.755 10.567-10.57 10.567zM144 309.333h-64v16h64v-16zM261.43 277.333h-74.861c-5.815 0-10.57-3.155-10.57-8.97v-26.864c0-5.811 4.755-12.166 10.57-12.166h74.865c5.81 0 10.566 6.355 10.566 12.169v26.865c0 5.81-4.755 8.966-10.57 8.966zM256 245.333h-64v16h64v-16zM261.43 341.333h-74.861c-5.815 0-10.57-4.755-10.57-10.57v-26.864c0-5.811 4.755-10.566 10.57-10.566h74.865c5.811 0 10.567 4.755 10.567 10.569v26.864c-0 5.811-4.755 10.567-10.57 10.567zM256 309.333h-64v16h64v-16zM373.43 277.333h-74.861c-5.815 0-10.57-3.155-10.57-8.97v-26.864c0-5.811 4.755-12.166 10.57-12.166h74.865c5.811 0 10.57 6.355 10.57 12.169v26.865c-0.003 5.81-4.759 8.966-10.574 8.966zM368 245.333h-64v16h64v-16zM495.254 67.817c-33.925 0-50.279 13.726-69.218 29.612-3.862 3.24-7.82 6.559-11.995 9.818 22.031 18.74 33.96 49.259 33.96 90.781 0 8.839-7.161 15.305-16 15.305h-352c-8.835 0-16-5.312-16-14.147v-73.236c-12.816 5.31-28.093 8.776-47.254 8.776-9.114 0-16.5-7.49-16.5-16.731 0-9.23 7.385-16.721 16.5-16.721 33.935 0 50.294-13.729 69.237-29.621 20.839-17.48 44.453-37.293 90.267-37.293 45.825 0 69.443 19.818 90.281 37.298 18.938 15.89 35.298 29.615 69.228 29.615 33.935 0 50.294-13.729 69.238-29.621 20.833-17.48 44.447-37.293 90.257-37.293 9.115 0 16.499 7.49 16.499 16.731-0 9.235-7.385 16.726-16.5 16.726zM245.493 97.433c-18.943-15.891-35.302-29.616-69.242-29.616-33.929 0-50.284 13.726-69.227 29.616-3.561 2.987-7.203 6.042-11.023 9.055v74.845h319.286c-3.161-33.206-16.389-48.669-30.365-56.196-13.202 5.767-29.041 9.589-49.161 9.589-45.815 0-69.434-19.813-90.267-37.293z" />
<glyph unicode="&#xe607;" d="M260 302.933c-4.419 0-8 3.581-8 8 0 43.232-35.171 78.4-78.4 78.4s-78.4-35.168-78.4-78.4c0-4.419-3.581-8-8-8s-8 3.581-8 8c0 52.055 42.346 94.4 94.4 94.4s94.4-42.346 94.4-94.4c0-4.419-3.581-8-8-8zM375.2 302.933c-4.419 0-8 3.581-8 8 0 27.351-22.25 49.6-49.6 49.6s-49.6-22.25-49.6-49.6c0-4.419-3.581-8-8-8s-8 3.581-8 8c0 36.173 29.427 65.6 65.6 65.6s65.6-29.427 65.6-65.6c0-4.419-3.581-8-8-8zM420 302.933c-4.419 0-8 3.581-8 8 0 7.939-6.461 14.4-14.4 14.4s-14.4-6.461-14.4-14.4c0-4.419-3.581-8-8-8s-8 3.581-8 8c0 16.762 13.639 30.4 30.4 30.4s30.4-13.639 30.4-30.4c0-4.419-3.581-8-8-8zM416 21.333h-224c-8.835 0-16 7.161-16 16v112c0 4.243 1.686 8.313 4.685 11.312l96 96c4.576 4.579 11.462 5.939 17.433 3.469 5.984-2.473 9.882-8.31 9.882-14.781v-25.373l36.688 36.685c4.576 4.579 11.462 5.939 17.433 3.469 5.981-2.473 9.878-8.31 9.878-14.781v-25.373l36.688 36.685c4.576 4.579 11.462 5.939 17.433 3.469 5.981-2.473 9.878-8.31 9.878-14.781v-208c0-8.839-7.161-16-16-16zM208 53.333h192v153.373l-36.688-36.685c-4.576-4.579-11.462-5.945-17.433-3.469-5.981 2.474-9.878 8.31-9.878 14.781v25.373l-36.688-36.685c-4.576-4.579-11.462-5.945-17.433-3.469-5.981 2.474-9.878 8.31-9.878 14.781v25.373l-64-64v-89.373zM136 21.333c-4.419 0-8 3.581-8 8v240c0 4.419 3.581 8 8 8s8-3.581 8-8v-240c0-4.419-3.581-8-8-8zM88 21.333c-4.419 0-8 3.581-8 8v240c0 4.419 3.581 8 8 8s8-3.581 8-8v-240c0-4.419-3.581-8-8-8z" />
<glyph unicode="&#xe608;" d="M486.4 245.333h-38.4v38.4c0 7.091-5.735 12.8-12.8 12.8h-25.6c-7.065 0-12.8-5.709-12.8-12.8v-38.4h-38.4c-7.065 0-12.8-5.709-12.8-12.8v-25.6c0-7.040 5.735-12.8 12.8-12.8h38.4v-38.4c0-7.040 5.735-12.8 12.8-12.8h25.6c7.065 0 12.8 5.76 12.8 12.8v38.4h38.4c7.065 0 12.8 5.76 12.8 12.8v25.6c0 7.091-5.735 12.8-12.8 12.8zM290.995 189.781c18.56 22.553 29.005 50.995 29.005 81.152 0 70.605-57.421 128-128 128s-128-57.395-128-128c0-30.157 10.445-58.599 29.005-81.152-49.152-32.691-80.205-88.704-80.205-149.248v-25.6c0-14.157 11.469-25.6 25.6-25.6h307.2c14.157 0 25.6 11.443 25.6 25.6v25.6c0 60.544-31.053 116.557-80.205 149.248zM64 40.533c0 52.941 33.255 101.043 82.739 119.654 9.088 3.405 15.463 11.699 16.461 21.401 0.973 9.651-3.609 19.046-11.827 24.243-22.656 14.259-36.173 38.554-36.173 65.101 0 42.343 34.458 76.8 76.8 76.8s76.8-34.457 76.8-76.8c0-26.547-13.517-50.841-36.173-65.101-8.218-5.197-12.8-14.592-11.827-24.243 0.999-9.702 7.373-17.997 16.461-21.401 49.485-18.611 82.739-66.714 82.739-119.654h-256z" />
<glyph unicode="&#xe609;" d="M319.591 146.791l-59.187-61.901c-4.813-4.992-4.813-13.159 0-18.151l17.357-18.202c4.813-4.992 12.595-4.992 17.408 0l85.248 89.139c4.813 5.043 4.813 13.159 0 18.202l-86.041 89.959c-4.813 4.992-12.544 4.992-17.357 0l-17.408-18.15c-4.813-5.043-4.813-13.159 0-18.202l59.981-62.695zM131.609 209.511l60.006-62.695-59.187-61.901c-4.813-4.992-4.813-13.159 0-18.151l17.357-18.202c4.813-4.992 12.595-4.992 17.408 0l85.248 89.139c4.813 5.043 4.813 13.159 0 18.202l-86.093 89.959c-4.813 4.992-12.544 4.992-17.357 0l-17.408-18.15c-4.787-5.069-4.787-13.159 0.025-18.202z" />
<glyph unicode="&#xe60a;" d="M192.461 147.61l59.187 61.901c4.813 4.992 4.813 13.159 0 18.151l-17.408 18.202c-4.813 4.992-12.544 4.992-17.357 0l-85.273-89.165c-4.813-5.043-4.813-13.159 0-18.202l86.041-89.907c4.813-5.043 12.595-5.043 17.408 0l17.357 18.151c4.813 4.992 4.813 13.159 0 18.151l-59.955 62.72zM380.39 84.89l-59.955 62.695 59.187 61.901c4.813 4.992 4.813 13.159 0 18.151l-17.408 18.202c-4.813 4.992-12.544 4.992-17.357 0l-85.299-89.139c-4.813-5.043-4.813-13.159 0-18.202l86.041-89.907c4.813-5.043 12.595-5.043 17.408 0l17.357 18.151c4.839 5.017 4.839 13.159 0.026 18.151z" />
<glyph unicode="&#xe60b;" d="M267.853 95.573c4.839-5.094 12.697-5.094 17.51 0l17.51 18.355c4.839 5.043 4.839 13.261 0 18.304l-58.752 61.543 59.443 62.31c4.839 5.095 4.839 13.312 0 18.355l-17.51 18.355c-4.813 5.043-12.647 5.043-17.51 0l-85.76-89.805c-4.813-5.094-4.813-13.312 0-18.355l85.069-89.063zM256 398.933c-113.101 0-204.8-91.699-204.8-204.8s91.699-204.8 204.8-204.8 204.8 91.699 204.8 204.8-91.699 204.8-204.8 204.8zM256 40.533c-84.71 0-153.6 68.889-153.6 153.6s68.889 153.6 153.6 153.6 153.6-68.889 153.6-153.6-68.889-153.6-153.6-153.6z" />
<glyph unicode="&#xe60c;" d="M293.453 48.615c4.839-5.094 12.697-5.094 17.51 0l17.51 18.355c4.839 5.043 4.839 13.261 0 18.304l-84.352 87.142 85.043 87.911c4.839 5.095 4.839 13.312 0 18.355l-17.51 18.355c-4.813 5.043-12.647 5.043-17.51 0l-111.36-115.405c-4.813-5.094-4.813-13.312 0-18.355l110.669-114.663z" />
<glyph unicode="&#xe60d;" d="M256 424.533c-113.101 0-204.8-91.699-204.8-204.8s91.699-204.8 204.8-204.8 204.8 91.699 204.8 204.8-91.699 204.8-204.8 204.8zM256 66.133c-84.71 0-153.6 68.889-153.6 153.6s68.889 153.6 153.6 153.6 153.6-68.889 153.6-153.6-68.889-153.6-153.6-153.6zM244.147 318.344c-4.839 5.095-12.697 5.095-17.511 0l-17.485-18.355c-4.864-5.043-4.864-13.261 0-18.304l58.752-61.594-59.443-62.311c-4.839-5.043-4.839-13.261 0-18.304l17.511-18.355c4.813-5.043 12.647-5.043 17.511 0l85.76 89.754c4.813 5.095 4.813 13.312 0 18.355l-85.094 89.113z" />
<glyph unicode="&#xe60e;" d="M218.573 296.986c-4.839 5.094-12.697 5.094-17.511 0l-17.511-18.355c-4.839-5.043-4.839-13.261 0-18.304l84.352-87.194-85.043-87.911c-4.839-5.043-4.839-13.261 0-18.304l17.511-18.355c4.813-5.043 12.647-5.043 17.511 0l111.334 115.405c4.813 5.043 4.813 13.261 0 18.355l-110.643 114.663z" />
<glyph unicode="&#xe60f;" d="M354.586 205.986c5.094 4.839 5.094 12.697 0 17.511l-18.355 17.485c-5.043 4.839-13.261 4.839-18.304 0l-61.568-58.752-62.31 59.443c-5.069 4.839-13.286 4.839-18.329 0l-18.355-17.485c-5.043-4.813-5.043-12.647 0-17.511l89.805-85.76c5.069-4.813 13.287-4.813 18.355 0l89.063 85.069zM256 398.933c-113.101 0-204.8-91.699-204.8-204.8s91.699-204.8 204.8-204.8 204.8 91.699 204.8 204.8-91.699 204.8-204.8 204.8zM256 40.533c-84.71 0-153.6 68.889-153.6 153.6s68.889 153.6 153.6 153.6 153.6-68.889 153.6-153.6-68.889-153.6-153.6-153.6z" />
<glyph unicode="&#xe610;" d="M380.185 159.053c5.094 4.839 5.094 12.697 0 17.51l-18.355 17.485c-5.043 4.839-13.261 4.839-18.304 0l-87.142-84.352-87.911 85.043c-5.095 4.839-13.312 4.839-18.355 0l-18.355-17.485c-5.043-4.813-5.043-12.647 0-17.51l115.405-111.36c5.095-4.813 13.312-4.813 18.355 0l114.663 110.669z" />
<glyph unicode="&#xe611;" d="M157.389 182.28c-5.095-4.839-5.095-12.697 0-17.51l18.355-17.51c5.043-4.839 13.261-4.839 18.304 0l61.594 58.752 62.31-59.443c5.043-4.839 13.261-4.839 18.304 0l18.355 17.51c5.043 4.813 5.043 12.647 0 17.51l-89.805 85.76c-5.043 4.813-13.261 4.813-18.355 0l-89.063-85.069zM256 398.933c-113.101 0-204.8-91.699-204.8-204.8s91.699-204.8 204.8-204.8 204.8 91.699 204.8 204.8-91.699 204.8-204.8 204.8zM256 40.533c-84.71 0-153.6 68.889-153.6 153.6s68.889 153.6 153.6 153.6 153.6-68.889 153.6-153.6-68.889-153.6-153.6-153.6z" />
<glyph unicode="&#xe612;" d="M131.815 84.147c-5.094-4.839-5.094-12.697 0-17.51l18.355-17.51c5.043-4.839 13.261-4.839 18.304 0l87.142 84.352 87.911-85.043c5.094-4.839 13.312-4.839 18.355 0l18.355 17.51c5.043 4.813 5.043 12.647 0 17.51l-115.405 111.36c-5.094 4.813-13.312 4.813-18.355 0l-114.662-110.669z" />
<glyph unicode="&#xe613;" d="M256 398.933c-113.101 0-204.8-91.699-204.8-204.8s91.699-204.8 204.8-204.8 204.8 91.699 204.8 204.8-91.699 204.8-204.8 204.8zM256 40.533c-84.71 0-153.6 68.889-153.6 153.6s68.889 153.6 153.6 153.6 153.6-68.889 153.6-153.6-68.889-153.6-153.6-153.6zM325.658 263.74c-9.651 9.6-25.19 9.6-34.791 0l-34.791-34.79-34.816 34.79c-9.6 9.6-25.191 9.6-34.791 0s-9.6-25.19 0-34.79l34.791-34.816-34.791-34.791c-9.6-9.6-9.6-25.19 0-34.791s25.191-9.6 34.791 0l34.79 34.791 34.791-34.791c9.6-9.6 25.139-9.6 34.791 0 9.6 9.6 9.6 25.19 0 34.791l-34.791 34.791 34.791 34.791c9.625 9.6 9.625 25.216 0.026 34.816z" />
<glyph unicode="&#xe614;" d="M355.533 83.84l-63.36 63.36 63.36 63.36c5.043 4.992 5.043 13.107 0 18.099l-18.099 18.099c-4.992 4.992-13.107 4.992-18.099 0l-63.36-63.36-63.36 63.36c-4.992 4.992-13.107 4.992-18.099 0l-18.099-18.099c-4.992-4.992-4.992-13.107 0-18.099l63.36-63.36-63.36-63.36c-4.992-4.992-4.992-13.107 0-18.099l18.099-18.099c4.992-4.992 13.107-4.992 18.099 0l63.36 63.36 63.36-63.36c4.992-4.992 13.107-4.992 18.099 0l18.099 18.099c5.043 5.017 5.043 13.107 0 18.099z" />
<glyph unicode="&#xe615;" d="M256 398.933c-113.101 0-204.8-91.699-204.8-204.8s91.699-204.8 204.8-204.8c113.101 0 204.8 91.699 204.8 204.8s-91.699 204.8-204.8 204.8zM256 40.533c-84.71 0-153.6 68.889-153.6 153.6s68.889 153.6 153.6 153.6c84.711 0 153.6-68.889 153.6-153.6s-68.889-153.6-153.6-153.6zM316.595 263.791l-86.553-86.605-34.662 34.637c-9.549 9.549-25.063 9.549-34.611 0-9.6-9.549-9.6-25.088 0-34.663l51.942-51.891c9.549-9.6 25.063-9.6 34.611 0l103.91 103.859c9.549 9.6 9.549 25.063 0 34.662-9.575 9.549-25.037 9.549-34.637 0z" />
<glyph unicode="&#xe616;" d="M208.537 48.461l-89.6 87.45c-4.992 4.839-4.992 12.647 0 17.51l18.099 17.51c4.992 4.813 13.107 4.813 18.099 0l62.464-61.286 139.238 136.346c4.992 4.813 13.107 4.813 18.099 0l18.099-17.511c4.992-4.839 4.992-12.698 0-17.511l-166.4-162.56c-4.992-4.813-13.082-4.813-18.099 0.051z" />
<glyph unicode="&#xe617;" d="M256 398.933c-113.101 0-204.8-91.699-204.8-204.8s91.699-204.8 204.8-204.8 204.8 91.699 204.8 204.8-91.699 204.8-204.8 204.8zM256 40.533c-84.71 0-153.6 68.889-153.6 153.6s68.889 153.6 153.6 153.6 153.6-68.889 153.6-153.6-68.889-153.6-153.6-153.6zM329.882 219.733h-48.281v48.256c0 13.543-12.007 24.551-25.6 24.601-13.594-0.051-25.6-11.059-25.6-24.601v-48.256h-48.179c-13.568 0-24.576-12.007-24.601-25.6 0.025-13.594 11.034-25.6 24.601-25.6h48.179v-48.205c0-13.594 12.032-24.601 25.6-24.601 13.594 0 25.6 11.008 25.6 24.601v48.205h48.281c13.568 0 24.576 12.007 24.601 25.6 0 13.594-11.034 25.6-24.601 25.6z" />
<glyph unicode="&#xe618;" d="M371.2 192h-89.6v89.6c0 7.091-5.735 12.8-12.8 12.8h-25.6c-7.066 0-12.8-5.709-12.8-12.8v-89.6h-89.6c-7.065 0-12.8-5.709-12.8-12.8v-25.6c0-7.040 5.734-12.8 12.8-12.8h89.6v-89.6c0-7.040 5.734-12.8 12.8-12.8h25.6c7.065 0 12.8 5.76 12.8 12.8v89.6h89.6c7.065 0 12.8 5.76 12.8 12.8v25.6c0 7.091-5.735 12.8-12.8 12.8z" />
<glyph unicode="&#xe619;" d="M146.099 340.232l40.601 40.601c10.010 10.010 6.631 18.099-7.501 18.099h-115.2c-7.066 0-12.8-5.709-12.8-12.8v-115.2c0-14.157 8.090-17.511 18.099-7.501l40.602 40.601 80.537-80.537c4.992-4.992 13.107-4.992 18.099 0l18.099 18.099c4.992 4.992 4.992 13.107 0 18.099l-80.537 80.537zM448 398.933h-115.2c-14.157 0-17.51-8.089-7.501-18.099l40.601-40.601-80.537-80.538c-4.992-4.992-4.992-13.107 0-18.099l18.099-18.099c4.992-4.992 13.107-4.992 18.099 0l80.538 80.538 40.601-40.601c10.010-10.010 18.099-6.656 18.099 7.501v115.2c0 7.091-5.735 12.8-12.8 12.8zM442.701 124.834l-40.601-40.601-80.538 80.538c-4.992 4.992-13.107 4.992-18.099 0l-18.099-18.099c-4.992-4.992-4.992-13.107 0-18.099l80.538-80.538-40.601-40.601c-10.010-10.010-6.656-18.099 7.501-18.099h115.2c7.065 0 12.8 5.76 12.8 12.8v115.2c0 14.157-8.089 17.51-18.099 7.501zM208.537 164.796c-4.992 4.992-13.107 4.992-18.099 0l-80.537-80.538-40.602 40.601c-10.010 9.984-18.099 6.63-18.099-7.526v-115.2c0-7.040 5.734-12.8 12.8-12.8h115.2c14.157 0 17.511 8.089 7.501 18.099l-40.601 40.601 80.537 80.538c4.992 4.992 4.992 13.107 0 18.099l-18.099 18.125z" />
<glyph unicode="&#xe61a;" d="M135.501 278.434l-40.602-40.602c-10.010-10.010-6.656-18.099 7.501-18.099h115.2c7.091 0 12.8 5.76 12.8 12.8v115.2c0 14.157-8.089 17.511-18.099 7.501l-40.601-40.601-80.537 80.563c-4.992 4.992-13.107 4.992-18.099 0l-18.125-18.125c-4.992-4.992-4.992-13.107 0-18.099l80.563-80.538zM294.4 219.733h115.2c14.157 0 17.51 8.089 7.501 18.099l-40.601 40.602 80.537 80.537c4.992 4.992 4.992 13.107 0 18.099l-18.099 18.099c-4.992 4.992-13.107 4.992-18.099 0l-80.538-80.538-40.601 40.601c-10.010 10.010-18.099 6.656-18.099-7.501v-115.2c0-7.040 5.76-12.8 12.8-12.8zM299.699 33.032l40.601 40.601 80.537-80.537c4.992-4.992 13.107-4.992 18.099 0l18.099 18.099c4.992 4.992 4.992 13.107 0 18.099l-80.538 80.538 40.601 40.601c10.010 10.010 6.656 18.099-7.501 18.099h-115.2c-7.040 0-12.8-5.709-12.8-12.8v-115.2c0-14.157 8.089-17.51 18.099-7.501zM73.063-6.929c4.992-4.992 13.107-4.992 18.099 0l80.538 80.537 40.601-40.601c10.010-9.984 18.099-6.63 18.099 7.526v115.2c0 7.091-5.709 12.8-12.8 12.8h-115.2c-14.157 0-17.51-8.089-7.501-18.099l40.602-40.601-80.537-80.538c-4.992-4.992-4.992-13.107 0-18.099l18.099-18.125z" />
<glyph unicode="&#xe61b;" d="M256 398.933c-113.101 0-204.8-91.699-204.8-204.8s91.699-204.8 204.8-204.8 204.8 91.699 204.8 204.8-91.699 204.8-204.8 204.8zM256 40.533c-84.71 0-153.6 68.941-153.6 153.6 0 84.711 68.889 153.6 153.6 153.6s153.6-68.889 153.6-153.6c0-84.659-68.889-153.6-153.6-153.6zM268.8 296.533h-25.6c-7.040 0-12.8-5.709-12.8-12.8v-25.6c0-7.040 5.76-12.8 12.8-12.8h25.6c7.091 0 12.8 5.76 12.8 12.8v25.6c0 7.091-5.709 12.8-12.8 12.8zM268.8 219.733h-25.6c-7.040 0-12.8-5.709-12.8-12.8v-102.4c0-7.040 5.76-12.8 12.8-12.8h25.6c7.091 0 12.8 5.76 12.8 12.8v102.4c0 7.091-5.709 12.8-12.8 12.8z" />
<glyph unicode="&#xe61c;" d="M256 398.933c-113.101 0-204.8-91.699-204.8-204.8s91.699-204.8 204.8-204.8 204.8 91.699 204.8 204.8-91.699 204.8-204.8 204.8zM256 40.533c-84.71 0-153.6 68.941-153.6 153.6 0 84.711 68.889 153.6 153.6 153.6 84.659 0 153.6-68.889 153.6-153.6 0-84.659-68.941-153.6-153.6-153.6zM268.8 322.133h-25.6c-7.091 0-12.8-5.709-12.8-12.8v-153.6c0-7.040 5.709-12.8 12.8-12.8h25.6c7.040 0 12.8 5.76 12.8 12.8v153.6c0 7.091-5.76 12.8-12.8 12.8zM268.8 117.333h-25.6c-7.091 0-12.8-5.709-12.8-12.8v-25.6c0-7.040 5.709-12.8 12.8-12.8h25.6c7.040 0 12.8 5.76 12.8 12.8v25.6c0 7.091-5.76 12.8-12.8 12.8z" />
<glyph unicode="&#xe61d;" d="M256 398.933c-113.101 0-204.8-91.699-204.8-204.8s91.699-204.8 204.8-204.8 204.8 91.699 204.8 204.8-91.699 204.8-204.8 204.8zM256 40.533c-84.71 0-153.6 68.941-153.6 153.6 0 84.711 68.889 153.6 153.6 153.6s153.6-68.889 153.6-153.6c0-84.659-68.889-153.6-153.6-153.6zM256 322.133c-37.99 0-69.657-27.75-75.75-64.051-1.152-6.938 2.15-12.749 11.75-12.749h25.6c10.393 0 12.8 9.242 12.8 12.8 0 7.091 5.76 12.8 12.8 12.8h25.6c7.091 0 12.8-5.709 12.8-12.8v-25.6c0-7.040-5.709-12.8-12.8-12.8 0 0-8.601 0-19.2 0-16 0-19.2-11.443-19.2-25.6v-38.4c0-7.040 5.76-12.8 12.8-12.8h25.6c7.091 0 12.8 5.76 12.8 12.8v17.203c29.798 10.547 51.2 39.040 51.2 72.397 0 42.343-34.457 76.8-76.8 76.8zM268.8 117.333h-25.6c-7.040 0-12.8-5.709-12.8-12.8v-25.6c0-7.040 5.76-12.8 12.8-12.8h25.6c7.091 0 12.8 5.76 12.8 12.8v25.6c0 7.091-5.709 12.8-12.8 12.8z" />
<glyph unicode="&#xe61e;" d="M51.2 270.933c0-70.554 57.421-128 128-128 4.633 0 9.319 0.307 14.183 0.845l11.417-11.443v-53.401c0-7.040 5.734-12.8 12.8-12.8h38.4v-38.4c0-7.040 5.709-12.8 12.8-12.8h38.4v-12.8c0-7.040 5.709-12.8 12.8-12.8h128c7.040 0 12.8 5.76 12.8 12.8v87.552c0 7.091-4.096 16.793-9.139 21.811l-145.561 142.899c0.743 5.325 1.101 10.829 1.101 16.537 0 70.605-57.447 128-128 128-70.579 0-128-57.395-128-128zM409.6 40.533h-51.2v25.6h-51.2v51.2h-51.2v36.199l-45.389 45.44-13.568-2.791c-6.605-1.408-12.416-2.048-17.843-2.048-42.343 0-76.8 34.458-76.8 76.8s34.457 76.8 76.8 76.8c42.368 0 76.8-34.457 76.8-76.8 0-6.605-0.793-12.647-2.355-17.946l-4.224-14.695 160.179-157.312v-40.448zM204.8 283.733c0-21.207-17.192-38.4-38.4-38.4s-38.4 17.193-38.4 38.4c0 21.207 17.192 38.4 38.4 38.4 21.208 0 38.4-17.192 38.4-38.4z" />
<glyph unicode="&#xe61f;" d="M179.2 245.333v25.6c0 42.343 34.458 76.8 76.8 76.8 33.562 0 62.157-21.658 72.576-51.712 4.659-13.338 15.667-25.088 29.824-25.088v0c14.157 0 25.882 11.546 23.065 25.395-11.776 58.547-63.462 102.605-125.466 102.605-70.707 0-128-57.293-128-128v-25.6h-25.6c-14.157 0-25.6-14.003-25.6-28.16v-202.24c0-14.157 11.443-25.6 25.6-25.6h307.2c14.157 0 25.6 11.443 25.6 25.6v202.24c0 14.157-11.443 28.16-25.6 28.16h-230.4zM384 40.533h-256v153.6h256v-153.6z" />
<glyph unicode="&#xe620;" d="M409.6 245.333h-25.6v25.6c0 70.707-57.293 128-128 128s-128-57.293-128-128v-25.6h-25.6c-14.157 0-25.6-14.003-25.6-28.16v-202.24c0-14.157 11.443-25.6 25.6-25.6h307.2c14.157 0 25.6 11.443 25.6 25.6v202.24c0 14.157-11.443 28.16-25.6 28.16zM256 347.733c42.342 0 76.8-34.457 76.8-76.8v-25.6h-153.6v25.6c0 42.342 34.458 76.8 76.8 76.8zM384 40.533h-256v153.6h256v-153.6z" />
<glyph unicode="&#xe621;" d="M409.856 219.989c0 76.8-63.232 127.488-141.056 127.488-72.96 0-140.544-51.2-140.544-127.488-28.16 0-53.76-11.495-72.166-30.208-18.713-18.457-30.233-44.058-30.233-72.448 0-56.294 45.824-102.144 102.4-102.144h65.024c7.066 0 9.319 4.557 5.043 10.189l-23.398 30.797c-4.275 5.658-13.465 10.214-20.557 10.214h-26.112c-25.6 0-51.2 22.81-51.2 50.944 0 8.448 2.048 16.64 5.888 23.808 8.448 16.409 25.6 27.648 45.312 27.648h37.888c7.168 0 12.8 5.658 12.8 12.8v38.912c0 9.011 1.536 17.459 4.608 25.088 3.328 8.704 8.704 16.64 15.616 23.808 16.896 16.896 42.752 26.88 69.376 26.88 43.008 0 89.6-23.808 89.6-76.288v-38.4c0-7.142 5.632-12.8 12.8-12.8h13.312c17.433 0 35.072-12.058 44.288-27.648 4.352-7.399 6.912-15.36 6.912-23.552 0-25.6-23.27-51.2-51.456-51.2h-26.88c-7.065 0-16.281-4.557-20.557-10.189l-23.399-30.797c-4.275-5.658-2.022-10.189 5.043-10.189h66.022c56.601 0.256 101.888 45.849 101.888 102.144 0.026 47.565-32.231 91.366-76.262 102.63zM324.762 143.189h-43.418v64c0 7.040-5.735 12.8-12.8 12.8h-25.6c-7.066 0-12.8-5.76-12.8-12.8v-64h-43.392c-7.603 0-10.087-6.759-5.504-12.8l66.227-85.043c4.583-5.99 11.981-6.093 16.537-0.103l66.227 85.145c4.582 6.041 2.099 12.8-5.478 12.8z" />
<glyph unicode="&#xe622;" d="M409.856 219.989c0 76.8-63.232 127.488-141.056 127.488-72.986 0-140.544-51.2-140.544-127.488-28.16 0-53.76-11.495-72.192-30.208-18.663-18.457-30.208-44.058-30.208-72.448 0-56.294 45.824-102.144 102.4-102.144h64c7.065 0 12.8 5.76 12.8 12.8v25.6c0 7.091-5.734 12.8-12.8 12.8h-64c-25.6 0-51.2 22.81-51.2 50.944 0 28.39 23.040 51.456 51.2 51.456h38.4c7.066 0 12.8 5.76 12.8 12.8v38.912c0 18.944 6.656 35.353 19.968 48.896 16.896 16.896 42.752 26.88 69.376 26.88 43.238 0 89.856-23.808 89.856-76.288v-38.4c0-7.040 5.735-12.8 12.8-12.8h12.8c25.6 0 51.2-25.6 51.2-51.2s-23.296-51.2-51.456-51.2h-63.744c-7.065 0-12.8-5.709-12.8-12.8v-25.6c0-7.040 5.735-12.8 12.8-12.8h64c56.576 0.256 101.888 45.849 101.888 102.144 0 47.591-32.281 91.392-76.288 102.656zM330.752 130.389l-66.227 85.043c-4.582 5.99-11.981 6.093-16.537 0.103l-66.227-85.146c-4.583-6.041-2.099-12.8 5.504-12.8h43.392v-64c0-7.040 5.734-12.8 12.8-12.8h25.6c7.065 0 12.8 5.76 12.8 12.8v64h43.392c7.603 0 10.087 6.784 5.504 12.8z" />
<glyph unicode="&#xe623;" d="M441.139 367.087l-34.791-34.791c-1.741 2.048-3.661 4.25-5.811 6.4-38.195 38.042-89.933 60.237-144.538 60.237-112.896 0-204.8-91.853-204.8-204.8 0-112.896 91.904-204.8 204.8-204.8 91.392 0 170.291 58.803 196.301 146.304 4.045 13.543-3.661 27.801-17.203 31.846s-27.801-3.712-31.846-17.255c-19.558-65.587-78.695-109.696-147.251-109.696-84.71 0-153.6 68.889-153.6 153.6s68.889 153.6 153.6 153.6c40.96 0 79.744-16.64 108.442-45.159l5.248-6.938-56.192-56.192c-10.906-10.905-7.245-19.712 8.141-19.712h125.261c7.705 0 13.901 6.246 13.901 13.952v125.261c0 15.385-8.806 18.995-19.661 8.141z" />
<glyph unicode="&#xe624;" d="M256 373.333h-153.6c0 14.157-11.443 25.6-25.6 25.6s-25.6-11.443-25.6-25.6v-371.2c0-7.040 5.76-12.8 12.8-12.8h25.6c7.091 0 12.8 5.76 12.8 12.8v115.2h128v-25.6c0-14.157 11.443-25.6 25.6-25.6h179.2c14.157 0 25.6 11.443 25.6 25.6v204.8c0 14.157-11.443 25.6-25.6 25.6h-153.6v25.6c0 14.157-11.443 25.6-25.6 25.6zM281.6 117.333v38.4c0 7.091-5.709 12.8-12.8 12.8h-166.4v153.6h128v-38.4c0-7.040 5.76-12.8 12.8-12.8h166.4v-153.6h-128z" />
<glyph unicode="&#xe625;" d="M435.2 322.133h-102.4v51.2c0 14.157-11.443 25.6-25.6 25.6h-102.4c-14.157 0-25.6-11.443-25.6-25.6v-51.2h-102.4c-14.157 0-25.6-11.443-25.6-25.6v-281.6c0-14.157 11.443-25.6 25.6-25.6h358.4c14.157 0 25.6 11.443 25.6 25.6v281.6c0 14.157-11.443 25.6-25.6 25.6zM230.4 347.733h51.2v-25.6h-51.2v25.6zM102.4 40.533v230.4h25.6v-230.4h-25.6zM179.2 40.533v230.4h153.6v-230.4h-153.6zM409.6 40.533h-25.6v230.4h25.6v-230.4z" />
<glyph unicode="&#xe626;" d="M460.8 296.636c0 67.353-102.989 102.297-204.8 102.297-101.76 0-204.8-34.893-204.8-102.247 0-0.154 0.051-0.154 0.051-0.154h-0.051v-102.451c0-0.154 0.051-0.358 0.051-0.512h-0.051v-101.555c0-67.379 103.040-102.682 204.8-102.682 101.811 0 204.8 35.2 204.8 102.451v102.349h-0.358c0.103 0 0.358 1.894 0.358 3.149v99.251h-0.051c0 0 0.051-0.103 0.051 0.103zM102.4 226.082c39.45-21.453 96.691-32.512 153.6-32.512s114.15 11.059 153.6 32.512v-28.8c0-8.192-10.496-21.606-30.745-31.309-30.31-14.848-75.111-23.399-122.855-23.399s-92.493 8.55-123.008 23.501c-22.605 10.803-30.592 21.863-30.592 28.007v32zM256 347.733c95.309 0 153.6-33.408 153.6-51.558 0-18.202-58.291-51.559-153.6-51.559-95.257 0-153.6 33.357-153.6 51.559 0 18.15 58.343 51.558 153.6 51.558zM256 40.431c-95.257 0-153.6 33.459-153.6 51.609v32.64c2.739-1.51 5.145-3.046 8.141-4.505 37.658-18.457 89.293-28.647 145.459-28.647s107.802 10.189 145.305 28.544c2.893 1.408 5.555 2.995 8.295 4.557v-32.845c0-18.048-58.291-51.353-153.6-51.353z" />
<glyph unicode="&#xe627;" d="M388.070 168.533c14.31 0 28.442 11.213 31.539 25.011l40.55 180.403c3.123 13.773-5.939 24.986-20.224 24.986h-362.803c-14.336 0-25.933-11.443-25.933-25.6s11.597-25.6 25.907-25.6h25.293v-230.4c0-14.157 12.211-25.6 26.547-25.6h280.013c14.361 0 25.907 11.443 25.907 25.6s-11.546 25.6-25.907 25.6h-255.36v25.6h234.471zM153.6 347.733h254.003l-35.2-128h-218.803v128zM204.826 27.733c0-21.207-17.192-38.4-38.4-38.4s-38.4 17.192-38.4 38.4c0 21.207 17.192 38.4 38.4 38.4 21.208 0 38.4-17.192 38.4-38.4zM409.625 27.733c0-21.207-17.192-38.4-38.4-38.4s-38.4 17.192-38.4 38.4c0 21.207 17.192 38.4 38.4 38.4 21.207 0 38.4-17.192 38.4-38.4z" />
<glyph unicode="&#xe628;" d="M412.007 249.634c14.259 15.898 23.194 36.659 23.194 59.699 0 49.51-40.089 89.6-89.6 89.6s-89.6-40.089-89.6-89.6c0-23.040 8.935-43.802 23.193-59.699-9.6-6.81-17.92-15.155-25.063-24.499-8.371 40.755-44.467 71.398-87.731 71.398-49.511 0-89.6-40.089-89.6-89.6 0-23.040 8.934-43.801 23.194-59.699-29.44-20.839-48.794-55.040-48.794-93.901v-38.4c0-14.157 11.443-25.6 25.6-25.6h179.2c14.157 0 25.6 11.443 25.6 25.6v38.4c0 23.808-4.403 31.207-7.040 38.4h160.64c14.157 0 25.6 11.443 25.6 25.6v38.4c0 38.861-19.353 73.063-48.793 93.901zM230.4 40.533h-128v12.8c0 35.303 28.697 64 64 64s64-28.697 64-64v-12.8zM409.6 142.933h-128v12.8c0 35.303 28.697 64 64 64s64-28.697 64-64v-12.8zM204.8 206.933c0-21.197-17.178-38.4-38.4-38.4s-38.4 17.203-38.4 38.4 17.178 38.4 38.4 38.4 38.4-17.203 38.4-38.4zM384 309.333c0-21.197-17.203-38.4-38.4-38.4s-38.4 17.203-38.4 38.4 17.203 38.4 38.4 38.4 38.4-17.203 38.4-38.4z" />
<glyph unicode="&#xe629;" d="M409.6-10.667h-307.2c-14.131 0-25.6 11.443-25.6 25.6v25.6c0 60.544 31.053 116.557 80.205 149.248-18.56 22.553-29.005 50.995-29.005 81.152 0 70.605 57.421 128 128 128s128-57.395 128-128c0-30.157-10.445-58.599-29.005-81.152 49.152-32.691 80.205-88.704 80.205-149.248v-25.6c0-14.157-11.443-25.6-25.6-25.6zM128 40.533h256c0 52.941-33.255 101.043-82.739 119.654-9.088 3.405-15.462 11.699-16.461 21.401-0.973 9.651 3.61 19.046 11.853 24.243 22.656 14.259 36.147 38.554 36.147 65.101 0 42.343-34.457 76.8-76.8 76.8s-76.8-34.457-76.8-76.8c0-26.547 13.517-50.841 36.173-65.101 8.218-5.197 12.8-14.592 11.827-24.243-0.999-9.702-7.373-17.997-16.461-21.401-49.485-18.611-82.739-66.714-82.739-119.654z" />
<glyph unicode="&#xe62a;" d="M258.995-10.667c-114.585 0-207.769 93.209-207.769 207.795 0 94.643 63.846 177.305 155.264 200.96 8.96 2.355 18.483-0.307 24.986-6.861 6.528-6.553 9.037-16.102 6.656-25.011-3.379-12.595-5.095-25.779-5.095-39.245 0-85.939 69.888-155.853 155.853-155.853 13.414 0 26.624 1.741 39.219 5.094 8.986 2.406 18.483-0.154 25.011-6.656 6.553-6.502 9.165-16 6.861-24.96-23.68-91.367-106.342-155.264-200.986-155.264zM181.145 332.143c-47.36-27.187-78.003-78.208-78.003-134.989 0-85.939 69.888-155.853 155.853-155.853 56.781 0 107.802 30.643 135.014 77.952-1.69 0-3.43-0.051-5.146-0.051-114.585 0-207.795 93.261-207.795 207.795 0 1.69 0.025 3.43 0.077 5.145z" />
<glyph unicode="&#xe62b;" d="M256 322.133c14.157 0 25.6 11.443 25.6 25.6v25.6c0 14.157-11.443 25.6-25.6 25.6s-25.6-11.443-25.6-25.6v-25.6c0-14.157 11.443-25.6 25.6-25.6zM346.496 284.629c10.010-10.010 26.189-10.010 36.199 0l18.099 18.099c10.010 10.010 10.010 26.189 0 36.198s-26.189 10.010-36.199 0l-18.099-18.099c-9.984-9.984-9.984-26.189 0-36.199zM384 194.133c0-14.157 11.392-25.6 25.6-25.6h25.6c14.157 0 25.6 11.443 25.6 25.6s-11.495 25.6-25.6 25.6h-25.6c-14.157 0-25.6-11.443-25.6-25.6zM346.496 103.637c-10.010-10.010-10.010-26.189 0-36.199l18.099-18.099c10.010-10.061 26.189-10.061 36.25 0 10.010 10.010 9.959 26.189-0.051 36.199l-18.099 18.099c-9.984 9.984-26.189 9.984-36.199 0zM256 66.133c-14.157 0-25.6-11.443-25.6-25.6v-25.6c0-14.157 11.392-25.6 25.6-25.6 14.157 0 25.549 11.495 25.6 25.6v25.6c0 14.157-11.443 25.6-25.6 25.6zM165.453 103.586c-10.010 10.010-26.137 10.061-36.198 0l-18.099-18.099c-10.010-10.010-10.010-26.189 0-36.199s26.189-9.959 36.199 0l18.15 18.099c9.984 9.984 9.984 26.189-0.051 36.199zM127.949 194.133c0 14.157-11.392 25.549-25.549 25.549l-25.651 0.051c-14.105 0-25.549-11.443-25.549-25.549 0-14.208 11.495-25.651 25.6-25.651h25.6c14.106 0 25.6 11.443 25.549 25.6zM165.453 284.629c10.010 10.010 10.010 26.138 0 36.199l-18.099 18.151c-10.010 10.010-26.189 10.010-36.198 0s-9.959-26.24 0-36.25l18.15-18.099c9.984-9.984 26.137-10.035 36.147 0zM255.949 296.533c-56.55 0-102.4-45.798-102.4-102.4 0-56.55 45.85-102.4 102.4-102.4 56.601 0 102.4 45.849 102.4 102.4 0 56.602-45.798 102.4-102.4 102.4zM255.949 142.933c-28.262 0-51.2 22.938-51.2 51.2s22.938 51.2 51.2 51.2 51.2-22.938 51.2-51.2-22.938-51.2-51.2-51.2z" />
<glyph unicode="&#xe62c;" d="M459.213 194.031c-11.52 92.647-84.966 165.965-177.613 177.536v14.567c0 7.066-5.76 12.8-12.8 12.8h-25.6c-7.091 0-12.8-5.734-12.8-12.8v-14.567c-92.647-11.571-166.093-84.864-177.638-177.536-1.767-14.003 9.882-25.498 24.038-25.498h153.6v-102.4c0-14.106-11.494-25.6-25.6-25.6-14.157 0-25.6 11.495-25.6 25.6 0 14.157-11.443 25.6-25.6 25.6s-25.6-11.443-25.6-25.6c0-42.342 34.458-76.8 76.8-76.8s76.8 34.457 76.8 76.8v102.4h153.6c14.157 0 25.753 11.495 24.013 25.498zM256 322.133c66.739 0 123.699-42.803 144.793-102.4h-289.639c21.145 59.597 78.106 102.4 144.845 102.4z" />
<glyph unicode="&#xe62d;" d="M386.56 140.373c-22.553-37.376-60.391-64.281-104.96-71.962v100.122h25.6c14.157 0 25.6 11.443 25.6 25.6s-11.443 25.6-25.6 25.6h-25.6v29.798c30.541 10.137 51.2 38.579 51.2 72.602 0 42.496-32.793 76.8-75.29 76.8-42.189 0-76.8-34.304-76.8-76.8 0-32.87 20.787-60.621 49.69-71.603v-30.797h-25.6c-14.157 0-25.6-11.443-25.6-25.6s11.443-25.6 25.6-25.6h25.6v-100.096c-44.544 7.68-82.457 34.586-104.96 71.962l19.098 19.098c5.018 4.992 3.303 9.037-3.738 9.037h-76.8c-7.091 0-12.8-5.735-12.8-12.8v-76.8c0-7.065 4.045-8.755 9.063-3.738l22.144 22.17c28.698-38.656 71.706-71.68 122.394-82.432l16.537-16.538c5.018-5.017 14.771-9.063 21.863-9.063h25.6c7.040 0 16.845 4.045 21.863 9.063l16.538 16.538c51.942 10.496 93.159 43.008 122.342 82.432l22.195-22.169c5.017-5.017 9.063-3.328 9.063 3.738v76.8c0 7.065-5.76 12.8-12.8 12.8h-76.8c-7.091 0-8.755-4.045-3.738-9.063l19.098-19.098zM281.6 322.133c0-14.157-11.443-25.6-25.6-25.6s-25.6 11.443-25.6 25.6 11.443 25.6 25.6 25.6 25.6-11.443 25.6-25.6z" />
<glyph unicode="&#xe62e;" d="M217.6 245.333h-25.6c-7.091 0-12.8-5.734-12.8-12.8v-153.6c0-7.065 5.709-12.8 12.8-12.8h25.6c7.040 0 12.8 5.735 12.8 12.8v153.6c0 7.066-5.76 12.8-12.8 12.8zM320 245.333h-25.6c-7.091 0-12.8-5.734-12.8-12.8v-153.6c0-7.065 5.709-12.8 12.8-12.8h25.6c7.040 0 12.8 5.735 12.8 12.8v153.6c0 7.066-5.76 12.8-12.8 12.8zM358.4 373.333c0 14.157-11.443 25.6-25.6 25.6h-153.6c-14.157 0-25.6-11.443-25.6-25.6v-51.2h-51.2c-14.157 0-25.6-11.443-25.6-25.6v0c0-14.157 11.443-25.6 25.6-25.6v0-256c0-14.157 11.443-25.6 25.6-25.6h256c14.157 0 25.6 11.443 25.6 25.6v256c14.157 0 25.6 11.443 25.6 25.6v0c0 14.157-11.443 25.6-25.6 25.6h-51.2v51.2zM204.8 347.733h102.4v-25.6h-102.4v25.6zM358.4 40.533h-204.8v230.4h204.8v-230.4z" />
<glyph unicode="&#xe62f;" d="M363.904 343.56l64.793-38.093-15.104-38.093-1.255 0.64c-7.45 3.738-15.591 5.581-23.705 5.581-9.651 0-20.608-2.663-29.159-7.911-15.591-9.651-26.445-26.701-26.445-45.082v-180.071h-153.6v180.071c0 18.381-10.855 35.43-26.445 45.082-8.525 5.248-18.816 7.911-28.493 7.911-8.090 0-16.563-1.843-24.038-5.581l-1.433-0.665-15.155 38.118 64.768 38.093c23.859-26.496 62.771-43.469 107.648-43.469s83.763 16.973 107.623 43.469zM163.994 398.933c0 0-3.072 0-6.861 0s-11.827-2.791-18.023-6.195l-98.406-54.707c-12.595-7.399-18.483-22.682-13.107-36.301l33.536-83.84c5.35-13.619 22.528-18.893 35.635-12.339l31.488 15.079v-211.891c0-14.643 7.399-19.405 22.042-19.405h211.891c14.643 0 22.041 4.762 22.041 19.379v211.891l31.488-14.643c13.107-6.528 29.159-0.819 34.509 12.8l34.099 84.762c5.351 13.619-0.256 27.136-12.851 34.535l-98.151 54.681c-6.118 3.405-14.233 6.195-17.971 6.195h-6.861c-7.091 0-12.697-5.913-15.488-12.416-9.011-21.325-39.859-40.55-76.749-40.55-36.864 0-67.738 19.225-76.774 40.55-2.791 6.503-8.397 12.416-15.488 12.416z" />
<glyph unicode="&#xe630;" d="M435.2 270.933h-71.168c12.262 13.645 19.968 31.463 19.968 51.2 0 42.343-34.457 76.8-76.8 76.8-19.738 0-37.581-7.705-51.2-19.942-13.619 12.237-31.463 19.942-51.2 19.942-42.343 0-76.8-34.457-76.8-76.8 0-19.737 7.706-37.555 19.968-51.2h-71.168c-14.157 0-25.6-11.443-25.6-25.6v-76.8c0-14.157 11.443-25.6 25.6-25.6v-128c0-14.157 11.443-25.6 25.6-25.6h307.2c14.157 0 25.6 11.443 25.6 25.6v128c14.157 0 25.6 11.443 25.6 25.6v76.8c0 14.157-11.443 25.6-25.6 25.6zM281.6 334.933c0 7.091 5.735 12.8 12.8 12.8h25.6c7.065 0 12.8-5.709 12.8-12.8v-25.6c0-7.040-5.735-12.8-12.8-12.8h-38.4v38.4zM192 347.733h25.6c7.066 0 12.8-5.709 12.8-12.8v-38.4h-38.4c-7.065 0-12.8 5.76-12.8 12.8v25.6c0 7.091 5.734 12.8 12.8 12.8zM409.6 219.733v-25.6h-128v25.6h128zM230.4 219.733v-25.6h-128v25.6h128zM128 40.533v102.4h102.4v-102.4h-102.4zM384 40.533h-102.4v102.4h102.4v-102.4z" />
<glyph unicode="&#xe631;" d="M273.715 28.143c-9.779-10.189-25.677-10.189-35.456 0l-157.209 163.686c-40.064 40.295-40.064 105.549 0 145.792 40.038 40.243 105.037 40.243 145.101 0l29.85-36.454 29.85 36.454c40.064 40.243 105.063 40.243 145.101 0 40.064-40.243 40.064-105.498 0-145.792l-157.235-163.687zM273.203 247.279c-9.498-10.496-24.909-10.496-34.406 0l-48.947 53.888c-20.019 20.147-52.505 20.147-72.55 0-20.019-20.096-20.019-52.736 0-72.909l138.701-145.715 138.701 145.741c19.993 20.147 19.993 52.787 0 72.909-20.045 20.147-52.531 20.147-72.55 0l-48.947-53.913z" />
<glyph unicode="&#xe632;" d="M246.119 90.248c-7.245 2.022-12.672 4.505-16.845 0.333-2.176-2.176-30.925-30.976-30.925-30.976-21.12-21.12-55.731-21.12-76.877 0-21.12 21.145-21.12 55.757 0 76.877l76.877 76.877c21.12 21.12 55.757 21.12 76.877 0 10.547-10.573 27.853-10.573 38.425 0 10.547 10.547 10.547 27.853 0 38.426-6.733 6.707-13.824 12.263-21.735 16.691-4.275 2.56-8.678 4.762-13.209 6.682-0.154 0.051-0.333 0.102-0.486 0.179-12.749 5.274-26.163 8.064-39.706 8.269-0.512 0.051-0.947-0.051-1.434-0.077-17.613 0.077-35.174-4.019-51.072-12.544-9.549-4.966-18.176-11.315-26.087-19.2l-76.877-76.877c-42.445-42.445-42.445-111.232 0-153.728 42.496-42.445 111.283-42.445 153.728 0l55.834 55.859c5.299 5.325 3.584 8.704-3.891 8.371-14.336-0.615-28.774 1.024-42.599 4.839zM275.226 367.087l-57.063-57.088c-5.325-5.299-3.609-8.627 3.891-8.243 14.336 0.691 28.749-0.896 42.65-4.813 7.194-2.074 13.107-4.173 16.87-0.41 2.227 2.253 32.077 32.103 32.077 32.103 21.12 21.12 55.731 21.12 76.877 0 21.12-21.146 21.12-55.757 0-76.877l-76.877-76.877c-21.12-21.12-55.757-21.12-76.877 0-10.547 10.573-27.853 10.573-38.425 0-10.547-10.547-10.547-27.853 0-38.425 13.286-13.261 29.209-22.272 45.747-27.264 3.251-0.947 6.733-1.715 9.779-2.509 3.84-0.743 7.322-1.152 10.777-1.536 3.84-0.409 7.859-0.589 11.93-0.409 4.199 0 8.243 0.179 12.262 0.768 2.509 0.205 4.813 0.563 7.296 1.127 20.582 4.070 40.141 14.055 55.936 29.798l76.877 76.877c42.445 42.445 42.445 111.232 0 153.728-42.496 42.496-111.283 42.496-153.728 0.051z" />
<glyph unicode="&#xe633;" d="M369.331-8.056l-113.331 62.336-113.331-62.361c-11.341-6.247-18.816-0.793-16.717 12.262l21.709 132.403-91.162 93.005c-9.114 9.319-6.195 18.458 6.553 20.352l125.799 19.123 57.037 120.96c5.607 11.879 14.669 11.879 20.275 0l57.011-120.96 125.798-19.123c12.723-1.894 15.642-11.059 6.553-20.352l-91.161-93.005 21.709-132.403c2.074-13.056-5.401-18.509-16.743-12.237zM138.701 213.18l58.957-60.185-13.798-84.096 72.141 39.629 72.115-39.654-13.773 84.096 58.957 60.185-81.459 12.391-35.84 76.032-35.84-76.032-81.459-12.365z" />
<glyph unicode="&#xe634;" d="M177.843-5.009c-35.097 0-70.144 13.337-96.845 39.987-25.856 25.907-40.090 60.288-40.090 96.896 0 36.557 14.259 70.963 40.090 96.845l135.757 135.757c38.451 38.451 100.941 38.425 139.392 0.025 38.4-38.451 38.4-100.966 0-139.392l-135.757-135.757c-23.501-23.501-61.645-23.45-85.094 0s-23.45 61.594 0 85.069l135.757 135.757c8.499 8.499 22.298 8.499 30.797 0 8.499-8.473 8.499-22.272 0-30.745l-135.808-135.757c-6.451-6.502-6.451-17.050 0-23.552 6.502-6.4 17.049-6.451 23.552 0l135.757 135.757c21.504 21.479 21.504 56.397 0 77.875-21.401 21.427-56.346 21.479-77.798 0l-135.808-135.808c-17.638-17.639-27.341-41.113-27.341-66.074 0-25.011 9.703-48.461 27.341-66.099 36.403-36.403 95.591-36.403 132.045-0.103l190.208 190.157c8.499 8.499 22.247 8.499 30.745 0 8.499-8.474 8.499-22.272 0-30.745l-199.091-199.117-0.461 0.409c-25.242-20.941-56.294-31.385-87.347-31.385z" />
<glyph unicode="&#xe635;" d="M256 398.933c-84.839 0-153.6-69.607-153.6-155.443 0-109.799 110.362-219.597 144-250.547 2.611-2.406 6.093-3.61 9.6-3.61s6.989 1.203 9.6 3.61c33.613 30.95 144 140.749 144 250.547 0 85.837-68.813 155.443-153.6 155.443zM256 54.639c-53.401 55.142-102.989 127.744-102.989 188.851 0 57.498 46.183 104.243 102.989 104.243s102.989-46.745 102.989-104.243c0-61.107-49.639-133.709-102.989-188.851zM307.2 245.333c0-28.277-22.923-51.2-51.2-51.2s-51.2 22.923-51.2 51.2c0 28.277 22.923 51.2 51.2 51.2 28.277 0 51.2-22.923 51.2-51.2z" />
<glyph unicode="&#xe636;" d="M453.299 33.032l-79.693 79.155c-0.051 0.051-0.103 0.051-0.154 0.103 22.605 30.003 36.147 67.123 36.147 107.443 0 98.791-80.409 179.2-179.2 179.2s-179.2-80.409-179.2-179.2 80.409-179.2 179.2-179.2c40.294 0 77.44 13.543 107.392 36.096 0.051-0.051 0.051-0.103 0.103-0.154l79.207-79.642c4.992-4.992 11.546-7.501 18.099-7.501s13.107 2.509 18.099 7.501c10.010 10.010 10.010 26.189 0 36.199zM230.4 91.733c-70.605 0-128 57.421-128 128s57.395 128 128 128c70.554 0 128-57.421 128-128s-57.447-128-128-128z" />
<glyph unicode="&#xe637;" d="M204.8 14.933c0-14.157 11.443-25.6 25.6-25.6h51.2c14.157 0 25.6 11.443 25.6 25.6h12.8c7.040 0 12.8 5.76 12.8 12.8v25.6c0 7.091-5.76 12.8-12.8 12.8h-128c-7.091 0-12.8-5.709-12.8-12.8v-25.6c0-7.040 5.709-12.8 12.8-12.8h12.8zM102.4 270.933c0-39.398 14.951-75.213 39.347-102.4 21.145-21.146 30.797-48.538 34.841-64.256 1.767-6.835 8.32-12.544 15.411-12.544h128c7.040 0 13.645 5.709 15.411 12.544 4.045 15.693 13.645 43.111 34.841 64.256 24.397 27.187 39.347 63.002 39.347 102.4 0 84.838-68.813 153.6-153.6 153.6-84.838 0-153.6-68.762-153.6-153.6zM332.851 203.58c-18.893-19.353-31.002-41.6-38.605-60.647h-76.544c-7.603 19.046-19.661 41.293-38.605 60.647-16.435 18.765-25.498 42.65-25.498 67.354 0 56.448 45.952 102.4 102.4 102.4s102.4-45.952 102.4-102.4c0-24.704-9.063-48.589-25.549-67.354z" />
<glyph unicode="&#xe638;" d="M409.549 219.708c-14.157 0-27.648 11.341-33.050 24.397-5.351 13.005-3.84 30.541 6.144 40.551l18.099 18.099c10.010 10.010 10.010 26.189 0.051 36.199-10.010 10.010-26.24 10.010-36.25 0 0 0-8.089-8.089-18.099-18.099s-27.546-11.546-40.55-6.144c-12.954 5.351-24.346 18.841-24.346 32.999v25.6c0 14.157-11.443 25.6-25.6 25.6s-25.6-11.443-25.6-25.6v-25.6c0-14.157-11.29-27.648-24.294-33.050s-30.541-3.84-40.525 6.144l-18.15 18.099c-10.010 10.010-26.215 10.010-36.173 0-10.010-9.984-10.010-26.189-0.025-36.198l18.15-18.099c10.010-10.010 11.75-27.648 7.347-40.909-4.352-13.261-17.638-24.397-31.769-24.243l-28.083 0.256c-14.131 0-25.6-11.495-25.6-25.6 0-14.157 11.469-25.6 25.6-25.6h25.626c14.131 0 27.827-11.213 34.074-23.654 6.272-12.442 4.813-29.696-5.299-39.603l-20.045-19.712c-10.010-10.010-9.984-26.24 0-36.199 10.010-10.010 26.215-10.010 36.199 0l18.125 18.099c10.010 10.010 27.52 11.546 40.55 6.144 13.005-5.401 24.294-18.893 24.294-33.050v-25.6c0-14.157 11.494-25.6 25.6-25.6 14.157 0 25.6 11.443 25.6 25.6v25.6c0 14.157 11.392 27.648 24.346 32.998 13.005 5.401 30.541 3.84 40.55-6.144l18.099-18.099c10.010-10.010 26.24-10.010 36.199 0 10.010 10.010 10.010 26.24 0.051 36.199l-18.151 18.151c-10.010 10.010-11.546 27.546-6.144 40.55s18.893 24.294 33.050 24.294h25.6c14.157 0 25.6 11.443 25.6 25.6s-11.443 25.6-25.6 25.6h-25.6zM255.975 117.308c-42.343 0-76.8 34.457-76.8 76.8s34.432 76.8 76.8 76.8c42.342 0 76.8-34.457 76.8-76.8s-34.483-76.8-76.8-76.8z" />
<glyph unicode="&#xe639;" d="M451.738 210.671l-33.101-33.101c-4.992-4.992-9.037-14.771-9.037-21.837v-115.2h-307.2v307.2h115.2c7.065 0 16.845 4.045 21.863 9.063l33.101 33.101c4.992 4.992 3.303 9.037-3.763 9.037h-192c-14.157 0-25.6-11.443-25.6-25.6v-358.4c0-14.157 11.443-25.6 25.6-25.6h358.4c14.157 0 25.6 11.443 25.6 25.6v192c0 7.065-4.045 8.755-9.063 3.738zM128 66.133h102.4l212.301 212.301c10.010 10.010 10.010 26.189 0 36.198l-66.202 66.202c-10.010 10.010-26.189 10.010-36.199 0l-212.301-212.301v-102.4zM179.2 147.336l146.099 146.099 30.003-30.003-146.125-146.099h-29.977v30.003z" />
<glyph unicode="&#xe63a;" d="M307.2 168.533h-51.2v51.2c0 14.157-11.443 25.6-25.6 25.6s-25.6-11.443-25.6-25.6v-76.8c0-14.157 11.443-25.6 25.6-25.6h76.8c14.157 0 25.6 11.443 25.6 25.6s-11.443 25.6-25.6 25.6zM181.325 377.327c-13.747 13.415-32.589 21.607-53.325 21.607-42.496 0-76.8-34.304-76.8-76.8 0-15.795 4.761-30.413 12.8-42.496 3.917-5.863 10.675-4.941 14.464 1.049 23.45 36.889 58.138 65.997 99.2 82.611 6.579 2.586 8.73 9.139 3.661 14.029zM330.701 377.327c-5.094-4.889-2.918-11.443 3.635-14.105 41.063-16.537 75.725-45.645 99.174-82.56 3.789-5.939 10.573-6.912 14.49-1.049 8.038 12.109 12.8 26.726 12.8 42.521 0 42.496-34.304 76.8-76.8 76.8-20.762 0-39.577-8.192-53.299-21.606zM281.6 373.333h12.8c7.065 0 12.8 5.76 12.8 12.8v0c0 7.091-5.735 12.8-12.8 12.8h-76.8c-7.065 0-12.8-5.709-12.8-12.8v0c0-7.040 5.734-12.8 12.8-12.8h12.8v-27.648c-86.81-12.442-153.6-86.912-153.6-177.152 0-40.397 13.543-77.543 36.096-107.546-0.512-0.461-1.254-0.512-1.741-0.998l-26.855-26.855c-10.010-10.010-10.010-26.394 0-36.352 5.094-4.889 11.495-7.45 18.151-7.45s13.056 2.56 18.201 7.45l26.855 26.855c0.512 0.512 0.537 1.255 0.999 1.741 29.977-22.502 67.097-36.045 107.494-36.045 41.088 0 78.873 14.003 109.107 37.248-0.256-1.152 0-1.894 0.538-2.457l25.6-26.855c4.864-5.376 11.75-7.936 18.406-7.936 6.4 0 12.8 2.304 17.664 7.142 10.214 9.753 10.496 25.907 0.768 36.096l-25.6 26.906c-0.768 0.998-1.792 1.305-2.816 2.048-0.435-0.589-0.973-1.101-1.433-1.69 23.117 30.208 36.966 67.789 36.966 108.697 0 90.24-66.791 164.711-153.6 177.152v27.648zM256 40.533c-70.579 0-128 57.447-128 128 0 70.605 57.421 128 128 128s128-57.395 128-128c0-70.553-57.421-128-128-128z" />
<glyph unicode="&#xe63b;" d="M140.8 347.733h25.6c7.066 0 12.8 5.735 12.8 12.8v25.6c0 7.066-5.734 12.8-12.8 12.8h-25.6c-7.065 0-12.8-5.734-12.8-12.8v-25.6c0-7.065 5.734-12.8 12.8-12.8zM345.6 347.733h25.6c7.065 0 12.8 5.735 12.8 12.8v25.6c0 7.066-5.735 12.8-12.8 12.8h-25.6c-7.065 0-12.8-5.734-12.8-12.8v-25.6c0-7.065 5.735-12.8 12.8-12.8zM435.2 398.933h-12.8c-7.065 0-12.8-5.734-12.8-12.8v-51.2c0-7.065-5.735-12.8-12.8-12.8h-76.8c-7.065 0-12.8 5.735-12.8 12.8v51.2c0 7.066-5.735 12.8-12.8 12.8h-76.8c-7.065 0-12.8-5.734-12.8-12.8v-51.2c0-7.065-5.734-12.8-12.8-12.8h-76.8c-7.066 0-12.8 5.735-12.8 12.8v51.2c0 7.066-5.734 12.8-12.8 12.8h-12.8c-14.131 0-25.6-11.443-25.6-25.6v-358.4c0-14.157 11.469-25.6 25.6-25.6h358.4c14.157 0 25.6 11.443 25.6 25.6v358.4c0 14.157-11.443 25.6-25.6 25.6zM409.6 40.533h-307.2v230.4h307.2v-230.4zM225.203 95.087c4.454-4.48 11.648-4.48 16.077 0l113.766 114.509c4.454 4.506 4.454 11.725 0 16.205l-16.077 16.205c-4.454 4.454-11.623 4.454-16.077 0l-89.651-90.215-44.135 40.781c-4.454 4.48-11.648 4.48-16.077 0l-16.102-16.231c-4.429-4.454-4.429-11.699 0-16.205l68.275-65.049z" />
<glyph unicode="&#xe63c;" d="M435.2 373.333h-358.4c-14.157 0-25.6-11.443-25.6-25.6v-307.2c0-14.157 11.443-25.6 25.6-25.6h358.4c14.157 0 25.6 11.443 25.6 25.6v307.2c0 14.157-11.443 25.6-25.6 25.6zM409.6 66.133h-307.2v256h307.2v-256zM371.2 219.733h-76.8c-7.065 0-12.8-5.735-12.8-12.8v-25.6c0-7.065 5.735-12.8 12.8-12.8h76.8c7.065 0 12.8 5.735 12.8 12.8v25.6c0 7.065-5.735 12.8-12.8 12.8zM371.2 296.533h-76.8c-7.065 0-12.8-5.734-12.8-12.8v-25.6c0-7.066 5.735-12.8 12.8-12.8h76.8c7.065 0 12.8 5.734 12.8 12.8v25.6c0 7.065-5.735 12.8-12.8 12.8zM230.4 189.423v11.801c15.257 8.883 25.6 25.216 25.6 44.109 0 28.262-22.938 51.2-51.2 51.2s-51.2-22.938-51.2-51.2c0-18.893 10.343-35.226 25.6-44.109v-11.801c-29.747-10.599-51.2-38.682-51.2-72.089v-12.8c0-7.065 5.734-12.8 12.8-12.8h128c7.065 0 12.8 5.735 12.8 12.8v12.8c0 33.408-21.453 61.491-51.2 72.089z" />
<glyph unicode="&#xe63d;" d="M435.2 398.933h-307.2c-14.157 0-25.6-11.443-25.6-25.6h-25.6c-14.157 0-25.6-11.443-25.6-25.6s11.443-25.6 25.6-25.6h25.6v-25.6h-25.6c-14.157 0-25.6-11.443-25.6-25.6s11.443-25.6 25.6-25.6h25.6v-25.6h-25.6c-14.157 0-25.6-11.443-25.6-25.6s11.443-25.6 25.6-25.6h25.6v-25.6h-25.6c-14.157 0-25.6-11.443-25.6-25.6s11.443-25.6 25.6-25.6h25.6v-25.6h-25.6c-14.157 0-25.6-11.443-25.6-25.6s11.443-25.6 25.6-25.6h25.6c0-14.157 11.443-25.6 25.6-25.6h307.2c14.157 0 25.6 11.443 25.6 25.6v358.4c0 14.157-11.443 25.6-25.6 25.6zM409.6 40.533h-256v307.2h256v-307.2zM345.6 91.733c7.040 0 12.8 5.735 12.8 12.8v46.695c0 7.065-3.942 16.998-9.6 21.248-11.904 8.96-26.496 15.079-41.6 18.457v10.291c15.257 8.883 25.6 25.216 25.6 44.109 0 28.262-22.938 51.2-51.2 51.2-28.288 0-51.2-22.938-51.2-51.2 0-18.893 10.343-35.226 25.6-44.109v-10.291c-15.155-3.379-29.696-9.498-41.6-18.457-5.657-4.25-9.6-14.157-9.6-21.248v-46.695c0-7.065 5.709-12.8 12.8-12.8h128z" />
<glyph unicode="&#xe63e;" d="M435.2 398.933c-14.157 0-25.6-11.443-25.6-25.6v-4.889l-338.202-72.448c-11.802-2.56-20.198-12.954-20.198-25.063v-102.4c0-12.058 8.397-22.502 20.198-25.011l56.602-12.135v-65.255c0-10.445 6.349-19.84 16.103-23.757l128-51.2c3.046-1.255 6.247-1.843 9.498-1.843 5.043 0 10.061 1.51 14.361 4.403 6.989 4.787 11.238 12.697 11.238 21.197v78.055l102.4-21.939v-4.915c0-14.157 11.443-25.6 25.6-25.6s25.6 11.443 25.6 25.6v307.2c0 14.157-11.443 25.6-25.6 25.6zM256 52.744l-76.8 30.745v36.941l76.8-16.461v-51.226zM102.4 189.244v60.979l307.2 65.843v-192.64l-307.2 65.817z" />
<glyph unicode="&#xe63f;" d="M192 398.933h-64.051c-7.040 0-15.641-4.941-18.944-11.238-28.647-55.27-45.005-128.205-45.005-193.562 0-65.305 16.358-138.291 45.056-193.561 3.251-6.247 11.904-11.238 18.944-11.238h64c14.157 0 25.6 11.443 25.6 25.6v51.2c0 14.157-11.443 25.6-25.6 25.6h-25.6c-14.157 0-25.6 11.495-25.6 25.6v153.6c0 14.157 11.443 25.6 25.6 25.6h25.6c14.106 0 25.6 11.495 25.6 25.6v51.2c0 14.157-11.443 25.6-25.6 25.6zM311.603 270.191c-5.248 4.711-14.106 3.84-19.098-1.152l-19.251-19.251c-4.992-4.992-3.661-11.29 1.843-15.693 11.699-9.369 19.303-23.808 19.303-39.962s-7.603-30.541-19.303-39.911c-5.504-4.454-6.861-10.752-1.843-15.744l19.251-19.251c4.992-4.992 13.849-5.863 19.098-1.152 20.889 18.714 33.997 45.849 33.997 76.058s-13.107 57.395-33.997 76.058zM425.702 286.831c-10.599 20.941-24.653 39.911-41.549 55.808-5.146 4.839-13.696 4.403-18.688-0.589l-18.253-18.253c-4.992-4.992-4.505-12.544 0.691-17.357 30.003-27.904 48.896-68.019 48.896-112.307s-18.893-84.352-48.896-112.256c-5.197-4.839-5.709-12.339-0.691-17.357l18.253-18.253c4.992-4.992 13.543-5.453 18.688-0.589 19.84 18.611 35.891 41.344 46.95 66.791 10.752 25.088 16.896 52.762 16.896 81.638 0 33.331-7.962 65.075-22.298 92.723z" />
<glyph unicode="&#xe640;" d="M332.8 66.133c0 14.157-11.443 25.6-25.6 25.6h-25.6c-14.157 0-25.6 11.495-25.6 25.6v153.6c0 14.157 11.443 25.6 25.6 25.6h25.6c14.106 0 25.6 11.494 25.6 25.6v51.2c0 14.157-11.443 25.6-25.6 25.6h-64.051c-7.040 0-15.642-4.941-18.944-11.239-28.647-55.27-45.005-128.205-45.005-193.561 0-65.305 16.358-138.291 45.056-193.562 3.251-6.247 11.904-11.238 18.944-11.238h64c14.157 0 25.6 11.443 25.6 25.6v51.2z" />
<glyph unicode="&#xe641;" d="M409.6 219.733v25.6c0 14.157-11.443 25.6-25.6 25.6s-25.6-11.443-25.6-25.6v-25.6c0-1.357-0.358-2.663-0.409-3.994l43.597-43.597c4.915 15.053 8.013 30.899 8.013 47.591zM260.019 168.943l-55.219 55.194v-4.403c0-28.262 22.912-51.2 51.2-51.2 1.357 0 2.663 0.307 4.019 0.409zM307.2 347.733c0 28.288-22.938 51.2-51.2 51.2-21.99 0-40.576-13.901-47.846-33.357l99.046-99.046v81.203zM332.8 40.533h-51.2v27.904c20.634 3.507 39.629 11.443 56.627 22.247l-37.401 37.401c-13.568-6.656-28.672-10.752-44.825-10.752-56.576 0-102.4 45.849-102.4 102.4v25.6c0 14.157-11.443 25.6-25.6 25.6s-25.6-11.443-25.6-25.6v-25.6c0-76.109 55.373-139.111 128-151.296v-27.904h-51.2c-14.157 0-25.6-11.443-25.6-25.6s11.443-25.6 25.6-25.6h153.6c14.157 0 25.6 11.443 25.6 25.6s-11.443 25.6-25.6 25.6zM431.462 106.095l-289.101 289.101c-4.992 4.992-13.107 4.992-18.099 0l-18.125-18.125c-4.992-4.992-4.992-13.107 0-18.099l289.101-289.101c4.992-4.992 13.107-4.992 18.099 0l18.099 18.099c5.017 5.017 5.017 13.107 0.026 18.125z" />
<glyph unicode="&#xe642;" d="M358.4 245.333v-25.6c0-56.55-45.824-102.4-102.4-102.4s-102.4 45.849-102.4 102.4v25.6c0 14.157-11.443 25.6-25.6 25.6v0c-14.157 0-25.6-11.443-25.6-25.6v-25.6c0-76.109 55.373-139.111 128-151.296v-27.904h-51.2c-14.157 0-25.6-11.443-25.6-25.6s11.443-25.6 25.6-25.6h153.6c14.157 0 25.6 11.443 25.6 25.6s-11.443 25.6-25.6 25.6h-51.2v27.904c72.627 12.211 128 75.213 128 151.296v25.6c0 14.157-11.443 25.6-25.6 25.6v0c-14.157 0-25.6-11.443-25.6-25.6zM256 168.533c-28.262 0-51.2 22.938-51.2 51.2v128c0 28.288 22.938 51.2 51.2 51.2s51.2-22.912 51.2-51.2v-128c0-28.262-22.938-51.2-51.2-51.2z" />
<glyph unicode="&#xe643;" d="M281.6 142.933l-93.338 93.338c-4.992 4.992-13.107 4.992-18.099 0l-33.101-33.075c-5.018-5.017-9.063-14.797-9.063-21.863v-102.4c0-7.065 5.734-12.8 12.8-12.8h230.4c7.065 0 12.8 5.735 12.8 12.8v51.2c0 7.065-4.045 16.845-9.063 21.863l-33.101 33.101c-4.992 4.992-13.107 4.992-18.099 0l-42.137-42.163zM358.4 258.133c0-21.207-17.192-38.4-38.4-38.4s-38.4 17.192-38.4 38.4c0 21.208 17.192 38.4 38.4 38.4 21.207 0 38.4-17.192 38.4-38.4zM435.2 398.933h-358.4c-14.157 0-25.6-11.443-25.6-25.6v-358.4c0-14.157 11.443-25.6 25.6-25.6h358.4c14.157 0 25.6 11.443 25.6 25.6v358.4c0 14.157-11.443 25.6-25.6 25.6zM409.6 40.533h-307.2v307.2h307.2v-307.2z" />
<glyph unicode="&#xe644;" d="M345.6 398.933h-243.2c-14.157 0-25.6-11.443-25.6-25.6v-358.4c0-14.157 11.443-25.6 25.6-25.6h307.2c14.157 0 25.6 11.443 25.6 25.6v294.4c0 7.065-4.045 16.845-9.063 21.862l-58.701 58.701c-4.992 4.992-14.771 9.037-21.837 9.037zM128 40.533v307.2h179.2v-64c0-7.066 5.735-12.8 12.8-12.8h64v-230.4h-256zM345.6 245.333h-179.2c-7.065 0-12.8-5.734-12.8-12.8v-25.6c0-7.065 5.734-12.8 12.8-12.8h179.2c7.065 0 12.8 5.735 12.8 12.8v25.6c0 7.066-5.735 12.8-12.8 12.8zM268.8 322.133h-102.4c-7.066 0-12.8-5.734-12.8-12.8v-25.6c0-7.066 5.734-12.8 12.8-12.8h102.4c7.065 0 12.8 5.734 12.8 12.8v25.6c0 7.065-5.735 12.8-12.8 12.8zM345.6 168.533h-179.2c-7.065 0-12.8-5.735-12.8-12.8v-25.6c0-7.065 5.734-12.8 12.8-12.8h179.2c7.065 0 12.8 5.735 12.8 12.8v25.6c0 7.065-5.735 12.8-12.8 12.8z" />
<glyph unicode="&#xe645;" d="M409.6 373.333h-76.8c0 7.065-11.443 25.6-25.6 25.6h-102.4c-14.157 0-25.6-18.535-25.6-25.6h-76.8c-14.157 0-25.6-11.443-25.6-25.6v-332.8c0-14.157 11.443-25.6 25.6-25.6h307.2c14.157 0 25.6 11.443 25.6 25.6v332.8c0 14.157-11.443 25.6-25.6 25.6zM230.4 347.733h51.2v-25.6h-51.2v25.6zM384 40.533h-256v281.6h51.2v-25.6c0-14.157 11.443-25.6 25.6-25.6h102.4c14.157 0 25.6 11.443 25.6 25.6v25.6h51.2v-281.6zM320 219.733h-128c-7.065 0-12.8-5.735-12.8-12.8v-25.6c0-7.065 5.734-12.8 12.8-12.8h128c7.065 0 12.8 5.735 12.8 12.8v25.6c0 7.065-5.735 12.8-12.8 12.8zM320 142.933h-128c-7.065 0-12.8-5.735-12.8-12.8v-25.6c0-7.065 5.734-12.8 12.8-12.8h128c7.065 0 12.8 5.735 12.8 12.8v25.6c0 7.065-5.735 12.8-12.8 12.8z" />
<glyph unicode="&#xe646;" d="M435.2 296.533h-51.2v76.8c0 14.157-11.443 25.6-25.6 25.6h-204.8c-14.157 0-25.6-11.443-25.6-25.6v-76.8h-51.2c-14.157 0-25.6-11.443-25.6-25.6v-204.8c0-14.157 11.443-25.6 25.6-25.6h51.2v-25.6c0-14.157 11.443-25.6 25.6-25.6h204.8c14.157 0 25.6 11.443 25.6 25.6v25.6h51.2c14.157 0 25.6 11.443 25.6 25.6v204.8c0 14.157-11.443 25.6-25.6 25.6zM179.2 347.733h153.6v-51.2h-153.6v51.2zM332.8 40.533h-153.6v51.2h153.6v-51.2zM409.6 91.733h-25.6v51.2h-256v-51.2h-25.6v153.6h307.2v-153.6zM256 219.733h51.2v-51.2h-51.2v51.2zM332.8 219.733h51.2v-51.2h-51.2v51.2z" />
<glyph unicode="&#xe647;" d="M294.4 66.133h25.6c7.040 0 12.8 5.76 12.8 12.8v153.6c0 7.091-5.76 12.8-12.8 12.8h-25.6c-7.091 0-12.8-5.709-12.8-12.8v-153.6c0-7.040 5.709-12.8 12.8-12.8zM140.8 66.133h25.6c7.040 0 12.8 5.76 12.8 12.8v102.4c0 7.091-5.76 12.8-12.8 12.8h-25.6c-7.091 0-12.8-5.709-12.8-12.8v-102.4c0-7.040 5.709-12.8 12.8-12.8zM217.6 66.133h25.6c7.040 0 12.8 5.76 12.8 12.8v204.8c0 7.091-5.76 12.8-12.8 12.8h-25.6c-7.091 0-12.8-5.709-12.8-12.8v-204.8c0-7.040 5.709-12.8 12.8-12.8zM371.2 66.133h25.6c7.040 0 12.8 5.76 12.8 12.8v256c0 7.091-5.76 12.8-12.8 12.8h-25.6c-7.091 0-12.8-5.709-12.8-12.8v-256c0-7.040 5.709-12.8 12.8-12.8zM448 40.533h-345.6v345.6c0 7.091-5.76 12.8-12.8 12.8h-25.6c-7.091 0-12.8-5.709-12.8-12.8v-371.2c0-14.157 11.443-25.6 25.6-25.6h371.2c7.040 0 12.8 5.76 12.8 12.8v25.6c0 7.091-5.76 12.8-12.8 12.8z" />
<glyph unicode="&#xe648;" d="M345.6 296.533h-179.2c-7.091 0-12.8-5.734-12.8-12.8v-25.6c0-7.066 5.709-12.8 12.8-12.8h179.2c7.040 0 12.8 5.734 12.8 12.8v25.6c0 7.065-5.76 12.8-12.8 12.8zM345.6 219.733h-179.2c-7.091 0-12.8-5.735-12.8-12.8v-25.6c0-7.065 5.709-12.8 12.8-12.8h179.2c7.040 0 12.8 5.735 12.8 12.8v25.6c0 7.065-5.76 12.8-12.8 12.8zM435.2 398.933h-358.4c-14.157 0-25.6-11.443-25.6-25.6v-281.6c0-14.157 11.443-25.6 25.6-25.6h91.802l69.299-69.299c4.992-4.992 11.546-7.501 18.099-7.501s13.107 2.509 18.099 7.501l69.299 69.299h91.802c14.157 0 25.6 11.443 25.6 25.6v281.6c0 14.157-11.443 25.6-25.6 25.6zM409.6 117.333h-76.8c-6.81 0-13.312-2.688-18.099-7.501l-58.701-58.701-58.701 58.701c-4.787 4.813-11.29 7.501-18.099 7.501h-76.8v230.4h307.2v-230.4z" />
<glyph unicode="&#xe649;" d="M435.2 347.733h-204.8v25.6c0 14.080-11.546 25.6-25.6 25.6h-128c-14.105 0-25.6-11.52-25.6-25.6v-358.4c0-14.080 11.495-25.6 25.6-25.6h358.4c14.055 0 25.6 11.52 25.6 25.6v307.2c0 14.080-11.546 25.6-25.6 25.6zM409.6 40.533h-307.2v179.2h76.8v-38.4c0-7.065 5.709-12.8 12.8-12.8h217.6v-128zM230.4 219.733v25.6c0 14.080-11.546 25.6-25.6 25.6h-102.4v76.8h76.8v-38.4c0-7.066 5.709-12.8 12.8-12.8h217.6v-76.8h-179.2z" />
<glyph unicode="&#xe64a;" d="M355.738 372.796c-29.44 16.486-63.437 25.881-99.738 26.137-113.203 0-204.8-91.853-204.8-204.8 0-103.040 75.904-188.058 174.874-202.752 9.881-1.305 19.789-2.048 29.927-2.048 36.275 0 70.298 9.395 99.738 25.907 62.669 34.995 105.063 101.99 105.063 178.893-0.256 76.903-42.394 143.642-105.063 178.663zM389.248 270.933h-62.106c-3.789 25.6-9.447 47.949-16.512 66.995 33.229-12.697 60.979-41.395 78.618-66.995zM254.259 348.092c0.614 0.051 1.152 0.103 1.741 0.103s1.152-0.051 1.69-0.103c8.269-12.697 18.714-51.559 25.267-77.159h-53.939c6.605 25.6 17.049 64.461 25.242 77.159zM104.294 168.533c-1.408 0-2.355 16.845-2.355 25.6s0.896 25.6 2.304 25.6h75.597c-0.358 0-0.64-16.896-0.64-25.6s0.281-25.6 0.64-25.6h-75.546zM178.611 61.192c-0.256 0-0.512 0-0.512 0.256-23.091 13.44-42.24 30.285-55.603 55.885h62.362c3.789-25.6 9.421-47.897 16.461-66.893-7.911 2.944-15.539 6.4-22.707 10.752zM184.857 270.933h-62.157c17.613 25.6 45.363 54.349 78.669 67.046-7.066-19.046-12.723-41.447-16.512-67.046zM257.767 40.175c-0.589 0-1.152-0.103-1.741-0.103s-1.152 0.103-1.741 0.103c-8.269 12.749-18.662 25.959-25.267 77.159h53.939c-6.553-51.2-16.998-64.409-25.19-77.159zM288.512 168.533h-64.999c-0.461 0-0.793 16.64-0.793 25.6s0.358 25.6 0.793 25.6h64.999c0.461 0 0.743-16.64 0.743-25.6s-0.307-25.6-0.743-25.6zM355.738 76.885c-8.141-6.861-16.998-12.954-26.394-18.253-6.041-3.2-12.288-6.093-18.791-8.55 7.091 19.098 12.749 41.651 16.589 67.251h62.208c-8.909-25.6-20.199-29.056-33.613-40.448zM332.16 168.533c0.333 0 0.64 16.896 0.64 25.6s-0.307 25.6-0.64 25.6h75.546c1.459 0 2.355-16.845 2.355-25.6s-0.947-25.6-2.355-25.6h-75.546z" />
<glyph unicode="&#xe64b;" d="M460.8 40.533h-25.6v179.2h25.6c11.034 0 20.787 7.040 24.269 17.511 3.507 10.445-0.103 21.965-8.935 28.57l-204.8 153.6c-9.088 6.861-21.607 6.861-30.695 0l-204.8-153.6c-8.806-6.605-12.416-18.15-8.909-28.595 3.482-10.445 13.235-17.485 24.269-17.485h25.6v-179.2h-25.6c-14.157 0-25.6-11.443-25.6-25.6s11.443-25.6 25.6-25.6h409.6c14.157 0 25.6 11.443 25.6 25.6s-11.443 25.6-25.6 25.6zM256 366.933l128-96h-256l128 96zM128 40.533v179.2h51.2v-179.2h-51.2zM230.4 40.533v179.2h51.2v-179.2h-51.2zM332.8 40.533v179.2h51.2v-179.2h-51.2z" />
<glyph unicode="&#xe64c;" d="M448 322.133h-128v51.2c0 14.157-11.443 25.6-25.6 25.6h-230.4c-14.157 0-25.6-11.443-25.6-25.6v-358.4c0-14.157 11.443-25.6 25.6-25.6h384c14.157 0 25.6 11.443 25.6 25.6v281.6c0 14.157-11.443 25.6-25.6 25.6zM268.8 296.533v-256h-179.2v307.2h179.2v-51.2zM422.4 40.533h-102.4v230.4h102.4v-230.4zM115.2 322.133h51.2v-51.2h-51.2v51.2zM192 322.133h51.2v-51.2h-51.2v51.2zM115.2 245.333h51.2v-51.2h-51.2v51.2zM192 245.333h51.2v-51.2h-51.2v51.2zM115.2 168.533h51.2v-51.2h-51.2v51.2zM192 168.533h51.2v-51.2h-51.2v51.2zM345.6 245.333h51.2v-51.2h-51.2v51.2zM345.6 168.533h51.2v-51.2h-51.2v51.2z" />
<glyph unicode="&#xe64d;" d="M435.2 347.733h-358.4c-14.157 0-25.6-11.443-25.6-25.6v-307.2c0-14.157 11.443-25.6 25.6-25.6h358.4c14.157 0 25.6 11.443 25.6 25.6v307.2c0 14.157-11.443 25.6-25.6 25.6zM399.002 296.533l-143.002-143.002-143.001 143.002h286.003zM102.4 234.735l144.537-144.537c4.992-4.992 13.107-4.992 18.099 0l144.563 144.538v-194.202h-307.2v194.202z" />
<glyph unicode="&#xe64e;" d="M265.293 392.482c-5.146 5.069-13.44 5.069-18.611 0l-218.137-213.607c-5.12-5.069-3.405-7.705 3.84-7.705h46.976v-166.4c0-7.065 3.174-12.8 10.24-12.8h332.8c7.065 0 15.36 5.735 15.36 12.8v166.4h41.856c7.245 0 8.986 2.637 3.84 7.705l-218.163 213.607zM309.76 132.796c0 7.065-8.269 12.8-15.36 12.8h-76.8c-7.065 0-10.24-5.735-10.24-12.8v-89.6h-76.8v155.443l128 129.664 128-129.664v-155.443h-76.8v89.6z" />
<glyph unicode="&#xe64f;" d="M448 219.733h-25.6c-7.065 0-12.8-5.735-12.8-12.8v-140.8h-307.2v140.8c0 7.065-5.734 12.8-12.8 12.8h-25.6c-7.066 0-12.8-5.734-12.8-12.8v-166.4c0-14.157 11.443-25.6 25.6-25.6h358.4c14.157 0 25.6 11.443 25.6 25.6v166.4c0 7.065-5.735 12.8-12.8 12.8zM247.731 121.89c4.583-5.99 11.981-6.093 16.538-0.103l66.227 85.146c4.582 6.041 2.099 12.8-5.504 12.8h-43.392v140.8c0 7.040-5.735 12.8-12.8 12.8h-25.6c-7.066 0-12.8-5.76-12.8-12.8v-140.8h-43.392c-7.603 0-10.087-6.784-5.504-12.8l66.227-85.043z" />
<glyph unicode="&#xe650;" d="M448 219.733h-25.6c-7.065 0-12.8-5.735-12.8-12.8v-140.8h-307.2v140.8c0 7.065-5.734 12.8-12.8 12.8h-25.6c-7.066 0-12.8-5.734-12.8-12.8v-166.4c0-14.157 11.443-25.6 25.6-25.6h358.4c14.157 0 25.6 11.443 25.6 25.6v166.4c0 7.065-5.735 12.8-12.8 12.8zM187.008 270.933h43.392v-140.8c0-7.040 5.734-12.8 12.8-12.8h25.6c7.065 0 12.8 5.76 12.8 12.8v140.8h43.392c7.603 0 10.087 6.784 5.504 12.8l-66.227 85.043c-4.582 5.99-11.981 6.093-16.537 0.102l-66.227-85.145c-4.583-6.042-2.099-12.8 5.504-12.8z" />
<glyph unicode="&#xe651;" d="M328.499 274.961c4.685 0 9.344-0.358 13.952-0.87-12.57 58.419-75.008 101.811-146.279 101.811-79.719 0-144.973-54.298-144.973-123.264 0-39.834 21.709-72.525 58.010-97.869l-14.489-43.648 50.662 25.421c18.125-3.61 32.691-7.271 50.791-7.271 4.531 0 9.063 0.231 13.542 0.563-2.841 9.702-4.48 19.84-4.48 30.387 0 63.334 54.375 114.739 123.264 114.739zM250.547 314.257c10.905 0 18.15-7.193 18.15-18.099 0-10.854-7.245-18.151-18.15-18.151-10.88 0-21.785 7.296-21.785 18.151 0 10.906 10.905 18.099 21.786 18.099zM149.069 278.008c-10.88 0-21.837 7.296-21.837 18.15 0 10.906 10.957 18.099 21.837 18.099 10.855 0 18.099-7.194 18.099-18.099 0-10.829-7.245-18.15-18.099-18.15zM460.8 161.937c0 57.984-58.010 105.216-123.136 105.216-68.966 0-123.315-47.257-123.315-105.216 0-58.061 54.349-105.165 123.315-105.165 14.438 0 29.005 3.635 43.495 7.245l39.783-21.786-10.906 36.25c29.082 21.837 50.765 50.791 50.765 83.456zM297.677 180.088c-7.219 0-14.515 7.193-14.515 14.515 0 7.219 7.296 14.464 14.515 14.464 10.957 0 18.125-7.245 18.125-14.464 0.026-7.322-7.168-14.515-18.125-14.515zM377.421 180.088c-7.168 0-14.387 7.193-14.387 14.515 0 7.219 7.219 14.464 14.387 14.464 10.88 0 18.151-7.245 18.151-14.464 0-7.322-7.296-14.515-18.151-14.515z" />
<glyph unicode="&#xe652;" d="M371.2 337.067h-51.2c-7.705 0-25.6-12.058-25.6-25.6v-51.2h76.8v-76.8h-76.8v-179.2h-76.8v179.2h-76.8v76.8h76.8v51.2c0 56.474 50.202 102.4 103.987 102.4h49.613v-76.8z" />
<glyph unicode="&#xe653;" d="M460.723 336.12c-15.053-6.707-31.257-11.213-48.256-13.261 17.357 10.394 30.643 26.855 36.941 46.49-16.256-9.651-34.253-16.64-53.351-20.403-15.36 16.358-37.197 26.547-61.337 26.547-46.387 0-84.045-37.658-84.045-84.045 0-6.605 0.743-13.005 2.202-19.149-69.863 3.507-131.789 36.941-173.261 87.808-7.194-12.39-11.341-26.854-11.341-42.24 0-29.159 19.405-54.861 41.959-69.939-13.747 0.461-33.511 4.25-33.511 10.547 0-0.409 0-0.743 0-1.101 0-40.704 24.397-74.65 62.848-82.406-7.040-1.894-16.743-2.944-24.422-2.944-5.427 0-11.827 0.538-16.973 1.562 10.701-33.408 41.191-57.702 77.952-58.394-28.749-22.502-65.305-35.942-104.653-35.942-6.809 0-13.619 0.409-20.198 1.152 37.197-23.808 81.305-37.76 128.743-37.76 154.599 0 239.053 128.051 239.053 239.104 0 3.661-0.103 7.296-0.281 10.906 16.461 11.827 30.695 26.624 41.933 43.469z" />
<glyph unicode="&#xe654;" d="M64.153 206.677c-7.040 0.487-12.851 6.144-12.851 13.261v52.557c0 7.091 5.811 12.851 12.851 12.493 69.402-3.251 131.993-32.794 178.073-78.951 46.183-46.208 75.725-108.749 79.027-178.151 0.358-7.039-5.401-12.8-12.467-12.8h-52.915c-7.066 0-12.774 5.76-13.261 12.8-3.097 46.541-22.631 89.933-55.782 122.957-33.076 33.178-76.416 52.736-122.675 55.834v0zM51.303 359.176v52.582c0 7.066 5.862 12.826 12.953 12.595 107.75-3.379 205.107-48.538 276.48-119.987 71.347-71.347 116.582-168.755 119.936-276.506 0.257-7.040-5.478-12.8-12.544-12.8h-52.863c-7.065 0-12.774 5.735-13.056 12.8-6.605 172.467-145.69 311.552-317.952 318.259-7.091 0.307-12.953 6.016-12.953 13.056v0zM151.303 67.099c0-27.614-22.386-50-50-50s-50 22.386-50 50c0 27.614 22.386 50 50 50 27.614 0 50-22.386 50-50z" />
<glyph unicode="&#xe655;" d="M393.907 362.667h-275.558c-36.813 0-67.149-32.409-67.149-71.552v-163.993c0-39.501 30.362-71.654 67.149-71.654h275.558c36.864 0 66.893 32.154 66.893 71.654v163.994c0 39.142-30.029 71.552-66.893 71.552zM328.013 202.078l-111.667-68.096c-6.375-3.84-11.546-0.896-11.546 6.707v136.858c0 7.603 5.171 10.547 11.546 6.656l111.667-68.045c6.375-3.891 6.375-10.24 0-14.080z" />
<glyph unicode="&#xe656;" d="M75.418 311.774c0-34.79 12.391-59.853 36.838-74.649 19.994-12.058 43.239-13.85 55.347-13.85 2.893 0 5.248 3.303 6.912 3.405 0 0-3.789-17.613 14.643-43.213h-0.793c-32.051 0-136.55-9.549-136.55-89.959 0-81.843 95.949-89.241 115.2-89.241 1.561 0 2.406 0 2.406 0 0.256 0 1.587 0 3.942 0 12.339 0 44.288 1.459 73.959 14.95 38.502 17.51 58.010 47.897 58.010 90.445 0 41.063-29.696 65.51-51.456 83.353-13.261 10.906-24.704 20.301-24.704 29.44 0 9.293 8.345 16.307 18.944 25.191 17.101 14.311 33.254 34.739 33.254 73.293 0 33.946-4.711 56.704-33.587 71.143 2.995 1.408 14.31 2.509 19.558 3.2 15.693 1.945 39.245 4.249 39.245 16.256v2.329h-115.558c-1.152 0-115.609-3.993-115.609-102.093zM259.968 101.956c2.151-32.691-27.75-56.858-72.653-59.904-45.542-3.149-83.097 16.103-85.299 48.743-1.101 15.693 6.297 31.155 20.761 43.392 14.643 12.39 34.739 20.096 56.653 21.606 2.56 0.154 5.095 0.256 7.706 0.256 42.189 0.026 70.784-23.245 72.832-54.093zM230.119 334.174c11.213-36.941-5.709-75.546-32.691-82.688-3.097-0.793-6.298-1.203-9.549-1.203-24.704 0-49.203 23.399-58.291 55.654-5.043 18.151-4.659 33.946 1.152 49.203 5.76 15.002 16 25.088 28.903 28.493 3.097 0.793 6.349 1.255 9.549 1.255 29.824-0.026 49.024-11.623 60.928-50.714zM408.986 260.267v51.2h-51.2v-51.2h-51.2v-51.2h51.2v-51.2h51.2v51.2h51.2v51.2h-51.2z" />
<glyph unicode="&#xe657;" d="M64 309.333h76.8v-281.6h-76.8v281.6zM345.6 309.333c-47.539 0-66.073-25.6-77.721-51.2l0.921 51.2h-76.007c1.203-25.6-0.793-281.6-0.793-281.6h76.8v149.632c0 7.936 0.512 15.974 2.688 21.683 6.4 15.975 25.753 32.563 50.202 32.563 31.949 0 49.51-24.679 49.51-60.519v-143.36h76.8v153.651c0 82.022-44.595 127.949-102.4 127.949zM140.8 373.333c0-21.208-17.192-38.4-38.4-38.4s-38.4 17.192-38.4 38.4c0 21.207 17.192 38.4 38.4 38.4 21.207 0 38.4-17.192 38.4-38.4z" />
<glyph unicode="&#xe658;" d="M354.56 213.419c-15.923 3.072-8.166 11.623-8.166 11.623s15.565 25.703-3.098 44.39c-23.117 23.168-79.411-2.944-79.411-2.944-21.453-6.682-15.719 3.021-12.723 19.584 0 19.456-6.707 52.403-63.872 32.947-57.139-19.584-106.24-88.090-106.24-88.090-34.151-45.619-29.645-80.743-29.645-80.743 8.55-77.747 91.136-99.098 155.341-104.141 67.533-5.248 158.72 23.322 186.394 82.048 27.673 58.829-22.579 82.125-38.579 85.325zM211.738 67.985c-67.097-3.149-121.319 30.464-121.319 75.213 0 44.825 54.221 80.768 121.319 83.84 67.098 3.123 121.421-24.576 121.421-69.248 0.026-44.749-54.298-86.759-121.421-89.805zM198.375 197.598c-67.456-7.936-59.699-71.117-59.699-71.117s-0.666-20.019 18.099-30.208c39.475-21.376 80.077-8.423 100.659 18.099 20.531 26.496 8.525 91.034-59.059 83.226zM181.351 108.868c-12.57-1.459-22.784 5.786-22.784 16.358 0 10.471 9.037 21.453 21.632 22.784 14.464 1.408 23.936-6.963 23.936-17.51 0-10.496-10.266-20.199-22.784-21.632zM221.133 142.712c-4.301-3.2-9.523-2.688-11.776 1.101-2.381 3.712-1.485 9.702 2.816 12.851 4.992 3.738 10.189 2.663 12.441-1.050 2.304-3.815 0.666-9.575-3.482-12.902zM387.43 240.708c5.427 0 10.035 4.019 10.829 9.293 0.103 0.41 0.154 0.717 0.154 1.203 8.217 74.087-60.749 61.312-60.749 61.312-6.067 0-11.008-4.966-11.008-11.111 0-6.093 4.915-11.085 11.008-11.085 49.587 10.957 38.605-38.528 38.605-38.528-0.026-6.119 4.992-11.085 11.161-11.085zM379.366 370.065c-23.885 5.581-48.358 0.768-55.219-0.538-0.538-0.051-0.998-0.563-1.51-0.64-0.256-0.051-0.409-0.307-0.409-0.307-6.81-1.894-11.699-8.192-11.699-15.591 0-8.832 7.091-16.077 16.077-16.077 0 0 8.627 1.178 14.541 3.456 5.863 2.381 55.194 1.766 79.693-39.424 13.363-30.055 5.888-50.176 4.966-53.402 0 0-3.2-7.808-3.2-15.463 0-8.858 7.168-14.413 16-14.413 7.424 0 13.645 0.998 15.462 13.491h0.128c26.368 87.706-32.179 128.947-74.829 138.905z" />
<glyph unicode="&#xe659;" d="M155.008 286.695v-6.63c10.803-66.944 37.683-114.714 89.626-142.234-8.986 18.329-14.31 39.142-14.31 61.005 0 28.186 7.885 54.707 22.4 76.263 14.489-21.581 22.477-48.103 22.477-76.263 0-24.55-6.17-47.795-17.331-67.635 0.666-0.307-0.538-0.563 0.154-0.845 59.213 33.433 80.64 83.303 91.443 149.709v58.777c-43.213-4.377-76.723-28.083-98.816-62.541-21.171 33.024-53.734 56.269-93.594 62.003-0.537-9.319-2.048-48.461-2.048-51.61zM403.507 290.023v-8.269c0-70.707 32.87-118.553 91.161-146.304 9.37 19.046 17.357 40.55 17.357 63.411 0 68.762-54.477 125.824-108.493 138.291-0.026-11.546-0.026-27.725-0.026-47.13zM111.795 278.426v58.982c-64.819-11.929-111.795-69.274-111.795-138.547 0-26.137 6.656-50.534 18.688-71.526 61.952 33.433 93.107 83.763 93.107 151.091zM139.059 202.163c-17.997-44.697-50.662-80.64-94.029-106.829 24.422-23.142 56.986-37.401 92.903-37.401 34.944 0 66.662 13.491 90.855 35.533-41.472 24.883-69.837 61.491-89.728 108.697zM373.76 205.466c-20.301-46.541-52.070-83.686-97.997-111.565 24.218-22.323 56.166-35.942 91.315-35.942 36.48 0 69.529 14.669 94.080 38.502-39.475 26.189-69.274 62.438-87.399 109.005z" />
<glyph unicode="&#xe65a;" d="M460.8 258.449c0 4.531 0 3.277-4.557 3.277h-122.471l-18.176 32.358-49.869 95.846c-4.557 0-4.557 0-9.088 0l-45.338-95.872-18.15-32.359h-141.952v-2.048l25.575-18.15 71.808-63.539-16.307-145.255c0-4.531 0.947-4.531 10.010-4.531l118.425 72.627 118.169-72.601c4.557 0 4.685 0 9.19 4.531l-22.63 145.255 68.070 58.394 27.289 22.067zM161.382 119.262l131.559 107.213-122.496 20.992h186.010l-113.433-102.681 117.939-25.523h-199.577z" />
<glyph unicode="&#xe65b;" d="M124.903 208.674c44.544 9.575 38.477 62.797 37.145 74.419-2.176 17.945-23.27 49.28-51.917 46.797-36.071-3.226-41.319-55.296-41.319-55.296-4.864-24.064 11.674-75.495 56.090-65.92zM172.211 116.104c-1.28-3.738-4.224-13.312-1.69-21.657 4.966-18.688 21.197-19.533 21.197-19.533h23.322v57.011h-24.96c-11.238-3.353-16.64-12.058-17.869-15.821zM207.59 297.941c24.576 0 44.467 28.314 44.467 63.335 0 34.944-19.865 63.283-44.467 63.283-24.55 0-44.493-28.314-44.493-63.283 0-35.021 19.942-63.335 44.493-63.335zM313.523 293.768c32.87-4.275 53.99 30.822 58.214 57.421 4.275 26.547-16.921 57.395-40.218 62.694-23.322 5.325-52.429-32.025-55.065-56.371-3.175-29.773 4.224-59.52 37.069-63.744zM394.087 137.429c0 0-50.867 39.347-80.538 81.894-40.243 62.695-97.459 37.197-116.557 5.274-19.047-31.872-48.743-52.045-52.966-57.395-4.275-5.248-61.44-36.096-48.743-92.467 12.672-56.32 57.267-55.245 57.267-55.245s32.845-3.226 70.938 5.299c38.118 8.448 70.912-2.125 70.912-2.125s89.063-29.824 113.408 27.597c24.346 57.395-13.721 87.168-13.721 87.168zM241.715 52.002h-57.881c-25.037 4.966-34.969 22.041-36.224 24.96-1.229 2.944-8.345 16.666-4.583 39.987 10.803 34.944 41.626 37.453 41.626 37.453h30.797v37.888l26.24-0.409v-139.878zM349.517 52.412h-66.611c-25.83 6.656-27.034 24.986-27.034 24.986v73.702l27.034 0.435v-66.202c1.664-7.065 10.419-8.346 10.419-8.346h27.443v74.137h28.749v-98.714zM443.827 249.096c0 12.697-10.547 51.021-49.741 51.021-39.27 0-44.519-36.147-44.519-61.722 0-24.371 2.074-58.419 50.841-57.344 48.768 1.075 43.418 55.245 43.418 68.045z" />
<glyph unicode="&#xe65c;" d="M435.2 412.8h-358.4c-14.157 0-25.6-11.443-25.6-25.6v-358.4c0-14.157 11.443-25.6 25.6-25.6h358.4c14.157 0 25.6 11.443 25.6 25.6v358.4c0 14.157-11.443 25.6-25.6 25.6zM409.6 54.4h-307.2v307.2h307.2v-307.2zM192 259.2h25.6c10.393 0 12.8 9.242 12.8 12.8 0 7.065 5.734 12.8 12.8 12.8h25.6c7.065 0 12.8-5.734 12.8-12.8v-25.6c0-7.066-5.735-12.8-12.8-12.8 0 0-8.601 0-19.2 0-16 0-19.2-11.443-19.2-25.6v-38.4c0-7.065 5.734-12.8 12.8-12.8h25.6c7.065 0 12.8 5.735 12.8 12.8v17.203c29.798 10.547 51.2 39.014 51.2 72.397 0 42.343-34.457 76.8-76.8 76.8-37.99 0-69.657-27.75-75.75-64.051-1.152-6.963 2.15-12.749 11.75-12.749zM268.8 131.2h-25.6c-7.066 0-12.8-5.735-12.8-12.8v-25.6c0-7.065 5.734-12.8 12.8-12.8h25.6c7.065 0 12.8 5.735 12.8 12.8v25.6c0 7.065-5.735 12.8-12.8 12.8z" />
<glyph unicode="&#xe65d;" d="M435.2 163.925c0 84.762-54.016 156.16-128 179.149v7.859c0 28.288-22.938 51.2-51.2 51.2s-51.2-22.912-51.2-51.2v-7.859c-73.984-22.989-128-94.413-128-179.149v-43.392h-12.8c-7.066 0-12.8-5.735-12.8-12.8v-25.6c0-7.065 5.734-12.8 12.8-12.8h115.2c0-42.394 34.381-76.8 76.8-76.8s76.8 34.406 76.8 76.8h115.2c7.065 0 12.8 5.735 12.8 12.8v25.6c0 7.065-5.735 12.8-12.8 12.8h-12.8v43.392zM268.8 43.733h-25.6c-7.066 0-12.8 5.735-12.8 12.8v12.8h51.2v-12.8c0-7.065-5.735-12.8-12.8-12.8zM128 120.533v43.392c0 74.906 57.421 135.808 128 135.808s128-60.903 128-135.808v-43.392h-256z" />
<glyph unicode="&#xe65e;" d="M230.375 354.159v-204.391l-61.952 59.955c-5.043 4.839-13.261 4.839-18.304 0l-18.355-17.51c-5.043-4.813-5.043-12.647 0-17.51l115.353-111.36c5.095-4.813 13.312-4.813 18.355 0l114.688 110.643c5.094 4.839 5.094 12.697 0 17.51l-18.355 17.51c-5.043 4.839-13.286 4.839-18.329 0l-61.926-59.93v205.082c0 7.091-5.709 12.749-12.8 12.749h-25.6c-7.014 0-12.774-5.658-12.774-12.749z" />
<glyph unicode="&#xe65f;" d="M396.8 238.933h-204.391l59.955 61.952c4.839 5.069 4.839 13.286 0 18.329l-17.511 18.355c-4.813 5.043-12.647 5.043-17.511 0l-111.36-115.379c-4.813-5.094-4.813-13.312 0-18.355l110.643-114.663c4.839-5.094 12.697-5.094 17.511 0l17.511 18.355c4.839 5.043 4.839 13.261 0 18.304l-59.929 61.901h205.082c7.065 0 12.8 5.735 12.8 12.8v25.6c0 7.066-5.735 12.8-12.8 12.8z" />
<glyph unicode="&#xe660;" d="M115.2 187.708h204.391l-59.955-61.952c-4.839-5.043-4.839-13.261 0-18.304l17.51-18.355c4.813-5.043 12.647-5.043 17.51 0l111.36 115.353c4.813 5.094 4.813 13.312 0 18.355l-110.643 114.688c-4.839 5.095-12.697 5.095-17.51 0l-17.51-18.329c-4.839-5.043-4.839-13.287 0-18.33l59.93-61.926h-205.082c-7.066 0-12.8-5.709-12.8-12.8v-25.6c0-7.040 5.734-12.8 12.8-12.8z" />
<glyph unicode="&#xe661;" d="M281.6 72.533v204.391l61.952-59.955c5.069-4.839 13.286-4.839 18.329 0l18.355 17.511c5.043 4.813 5.043 12.647 0 17.511l-115.379 111.36c-5.094 4.813-13.312 4.813-18.355 0l-114.688-110.669c-5.094-4.839-5.094-12.697 0-17.511l18.355-17.485c5.043-4.839 13.261-4.839 18.304 0l61.927 59.93v-205.082c0-7.065 5.734-12.8 12.8-12.8h25.6c7.065 0 12.8 5.735 12.8 12.8z" />
</font>
</defs>
</svg>
